<svg width="377" height="278" xmlns="http://www.w3.org/2000/svg" xmlns:xlink="http://www.w3.org/1999/xlink" overflow="hidden"><defs><clipPath id="clip0"><rect x="750" y="222" width="361" height="183"/></clipPath><clipPath id="clip1"><rect x="750" y="222" width="361" height="183"/></clipPath><clipPath id="clip2"><rect x="750" y="222" width="361" height="183"/></clipPath></defs><g transform="translate(-742 -221)"><g clip-path="url(#clip0)"><g clip-path="url(#clip1)"><g clip-path="url(#clip2)"><path d="M10.4333 278.474 363.519 278.474C365.361 278.474 366.853 276.982 366.853 275.141L366.853 275.141C366.853 273.3 365.361 271.808 363.519 271.808L10.4333 271.808C8.59219 271.808 7.10012 273.3 7.10012 275.141L7.10012 275.141C7.10136 276.982 8.59343 278.474 10.4333 278.474Z" fill="#F1C8B9" transform="matrix(1.00065 0 0 1 742.896 126.517)"/><path d="M106.115 138.675C94.4019 138.675 84.8997 148.176 84.8997 159.891 84.8997 170.081 92.0559 178.585 101.604 180.654 104.236 181.225 106.115 183.551 106.115 186.243L106.115 236.933C106.115 240.091 108.677 242.653 111.836 242.653L121.639 242.653C124.798 242.653 127.36 240.091 127.36 236.933L127.36 159.89C127.358 148.176 117.829 138.675 106.115 138.675L106.115 138.675Z" fill="#F1C8B9" transform="matrix(1.00065 0 0 1 742.896 126.517)"/><path d="M241.319 138.675C253.061 138.675 262.562 148.176 262.562 159.891 262.562 170.084 255.402 178.589 245.832 180.655 243.199 181.224 241.318 183.551 241.318 186.246L241.318 236.934C241.318 240.093 238.756 242.654 235.598 242.654L225.823 242.654C222.664 242.654 220.102 240.093 220.102 236.934L220.102 159.89C220.104 148.176 229.606 138.675 241.319 138.675L241.319 138.675Z" fill="#F1C8B9" transform="matrix(1.00065 0 0 1 742.896 126.517)"/><path d="M114.712 246.481 118.315 246.481C119.763 246.481 120.86 247.789 120.608 249.215L117.657 265.97C117.461 267.083 116.494 267.895 115.363 267.895L114.712 267.895C113.426 267.895 112.383 266.851 112.383 265.565L112.383 248.809C112.383 247.524 113.426 246.481 114.712 246.481Z" fill="#F1C8B9" transform="matrix(1.00065 0 0 1 742.896 126.517)"/><path d="M232.722 246.481 229.145 246.481C227.697 246.481 226.6 247.786 226.85 249.211L229.779 265.966C229.973 267.081 230.942 267.895 232.074 267.895L232.722 267.895C234.008 267.895 235.052 266.851 235.052 265.565L235.052 248.809C235.05 247.524 234.008 246.481 232.722 246.481Z" fill="#F1C8B9" transform="matrix(1.00065 0 0 1 742.896 126.517)"/><path d="M137.855 199.626 209.578 199.626C212.556 199.626 214.969 202.04 214.969 205.017L214.969 214.371C214.969 217.349 212.555 219.762 209.578 219.762L137.855 219.762C134.877 219.762 132.464 217.348 132.464 214.371L132.464 205.017C132.464 202.04 134.877 199.626 137.855 199.626Z" fill="#F1C8B9" transform="matrix(1.00065 0 0 1 742.896 126.517)"/><path d="M137.855 195.06 209.578 195.06C212.556 195.06 214.969 192.645 214.969 189.669L214.969 127.787C214.969 124.809 212.555 122.396 209.578 122.396L137.855 122.396C134.877 122.396 132.464 124.81 132.464 127.787L132.464 189.669C132.464 192.645 134.877 195.06 137.855 195.06Z" fill="#F1C8B9" transform="matrix(1.00065 0 0 1 742.896 126.517)"/><path d="M137.855 242.652 209.578 242.652C212.556 242.652 214.969 240.237 214.969 237.261L214.969 227.907C214.969 224.929 212.555 222.516 209.578 222.516L137.855 222.516C134.877 222.516 132.464 224.93 132.464 227.907L132.464 237.261C132.464 240.238 134.877 242.652 137.855 242.652Z" fill="#F1C8B9" transform="matrix(1.00065 0 0 1 742.896 126.517)"/><path d="M50.0424 267.895 39.5193 267.895C39.5193 267.895 27.5503 255.67 27.5503 235.477 27.5503 215.282 43.4907 204.449 43.4907 189.671 43.4907 182.562 41.4576 177.756 39.3423 174.678 37.9936 172.715 39.4022 170.044 41.7842 170.044L50.0411 170.044 58.2843 170.044C60.6651 170.044 62.0749 172.711 60.7287 174.675 58.6208 177.751 56.5915 182.559 56.5915 189.671 56.5915 204.449 72.5032 215.282 72.5032 235.477 72.5032 255.671 60.5629 267.895 60.5629 267.895L50.0424 267.895Z" fill="#F1C8B9" transform="matrix(1.00065 0 0 1 742.896 126.517)"/><path d="M50.3253 166.612 57.4441 166.612C57.4441 166.612 53.1611 139.016 69.1015 113.971 69.1015 113.971 48.3409 138.164 50.3253 166.612L50.3253 166.612Z" fill="#F1C8B9" transform="matrix(1.00065 0 0 1 742.896 126.517)"/><path d="M47.7737 166.612 42.4062 166.612C42.2554 166.612 42.132 166.496 42.1233 166.347 41.9874 164.011 40.8269 146.862 35.5218 137.598 35.5218 137.598 48.0579 148.121 48.0579 166.329L48.0579 166.329C48.0567 166.485 47.9295 166.612 47.7737 166.612Z" fill="#F1C8B9" transform="matrix(1.00065 0 0 1 742.896 126.517)"/><path d="M48.2274 153.849C48.2274 153.849 42.3564 134.194 31.2662 122.508 31.2662 122.508 43.108 128.03 50.1608 143.428 50.3739 143.893 50.4088 144.421 50.2543 144.908 49.813 146.304 48.8619 149.595 48.2274 153.849L48.2274 153.849Z" fill="#F1C8B9" transform="matrix(1.00065 0 0 1 742.896 126.517)"/><path d="M51.1767 139.299C51.1767 139.299 48.6238 110.284 53.7295 95.4789 53.7295 95.4789 46.4113 108.789 45.5088 129.088 45.4851 129.611 45.6347 130.124 45.9364 130.551 47.0383 132.099 49.828 136.152 51.1767 139.299L51.1767 139.299Z" fill="#F1C8B9" transform="matrix(1.00065 0 0 1 742.896 126.517)"/><path d="M265.394 200.724 345.496 200.724C347.061 200.724 348.328 199.456 348.328 197.892L348.328 197.892C348.328 196.328 347.061 195.06 345.496 195.06L265.394 195.06C263.83 195.06 262.562 196.328 262.562 197.892L262.562 197.892C262.562 199.456 263.83 200.724 265.394 200.724Z" fill="#F1C8B9" transform="matrix(1.00065 0 0 1 742.896 126.517)"/><path d="M341.383 265.771 341.383 206.296C341.383 205.123 340.432 204.172 339.259 204.172L336.08 204.172C334.907 204.172 333.956 205.123 333.956 206.296L333.956 265.771C333.956 266.944 334.907 267.895 336.08 267.895L339.259 267.895C340.432 267.895 341.383 266.944 341.383 265.771Z" fill="#F1C8B9" transform="matrix(1.00065 0 0 1 742.896 126.517)"/><path d="M276.937 265.771 276.937 206.296C276.937 205.123 275.986 204.172 274.813 204.172L271.634 204.172C270.461 204.172 269.51 205.123 269.51 206.296L269.51 265.771C269.51 266.944 270.461 267.895 271.634 267.895L274.813 267.895C275.986 267.895 276.937 266.944 276.937 265.771Z" fill="#F1C8B9" transform="matrix(1.00065 0 0 1 742.896 126.517)"/><path d="M279.556 207.373 279.556 223.065C279.556 224.834 280.989 226.268 282.758 226.268L328.135 226.268C329.904 226.268 331.337 224.834 331.337 223.065L331.337 207.373C331.337 205.604 329.904 204.171 328.135 204.171L282.758 204.171C280.989 204.171 279.556 205.604 279.556 207.373ZM305.189 218.053C303.701 217.918 302.554 216.605 302.616 215.111 302.68 213.592 303.936 212.4 305.446 212.4 306.995 212.4 308.278 213.655 308.278 215.232 308.278 216.866 306.852 218.204 305.189 218.053Z" fill="#F1C8B9" transform="matrix(1.00065 0 0 1 742.896 126.517)"/></g></g></g><path d="M924.543 493.457 924.638 493.457C924.796 493.536 925.015 493.704 925.292 493.959 925.57 494.214 925.796 494.461 925.971 494.7L925.971 494.796C925.876 494.875 925.769 494.975 925.649 495.095 925.53 495.214 925.408 495.338 925.281 495.465 925.154 495.593 925.034 495.716 924.923 495.836 924.812 495.955 924.725 496.047 924.662 496.111L924.566 496.111C924.424 495.92 924.233 495.704 923.995 495.465 923.757 495.226 923.511 495.043 923.257 494.915L923.257 494.82C923.257 494.804 923.321 494.72 923.447 494.568 923.574 494.417 923.717 494.262 923.876 494.102 924.035 493.943 924.181 493.795 924.316 493.66 924.451 493.524 924.527 493.457 924.543 493.457ZM921.614 493.457 921.71 493.457C921.868 493.536 922.087 493.704 922.364 493.959 922.642 494.214 922.868 494.461 923.043 494.7L923.043 494.796C922.948 494.875 922.84 494.975 922.721 495.095 922.602 495.214 922.479 495.338 922.352 495.465 922.225 495.593 922.106 495.716 921.995 495.836 921.884 495.955 921.797 496.047 921.733 496.111L921.638 496.111C921.495 495.92 921.305 495.704 921.067 495.465 920.829 495.226 920.583 495.043 920.329 494.915L920.329 494.82C920.329 494.804 920.392 494.72 920.519 494.568 920.646 494.417 920.789 494.262 920.948 494.102 921.107 493.943 921.253 493.795 921.388 493.66 921.523 493.524 921.599 493.457 921.614 493.457ZM1008.43 488.698 1008.52 488.698C1008.68 488.777 1008.9 488.945 1009.18 489.2 1009.46 489.455 1009.68 489.702 1009.86 489.941L1009.86 490.037C1009.76 490.117 1009.65 490.216 1009.54 490.336 1009.42 490.455 1009.29 490.579 1009.17 490.707 1009.04 490.834 1008.92 490.958 1008.81 491.077 1008.7 491.197 1008.61 491.288 1008.55 491.352L1008.45 491.352C1008.31 491.161 1008.12 490.946 1007.88 490.707 1007.64 490.467 1007.4 490.284 1007.14 490.156L1007.14 490.061C1007.14 490.045 1007.21 489.961 1007.33 489.81 1007.46 489.658 1007.6 489.503 1007.76 489.343 1007.92 489.184 1008.07 489.037 1008.2 488.901 1008.34 488.766 1008.41 488.698 1008.43 488.698ZM1003.83 488.698 1003.92 488.698C1004.08 488.777 1004.3 488.945 1004.58 489.2 1004.86 489.455 1005.08 489.702 1005.26 489.941L1005.26 490.037C1005.16 490.117 1005.05 490.216 1004.94 490.336 1004.82 490.455 1004.69 490.579 1004.57 490.707 1004.44 490.834 1004.32 490.958 1004.21 491.077 1004.1 491.197 1004.01 491.288 1003.95 491.352L1003.85 491.352C1003.71 491.161 1003.52 490.946 1003.28 490.707 1003.04 490.467 1002.8 490.284 1002.54 490.156L1002.54 490.061C1002.54 490.045 1002.61 489.961 1002.73 489.81 1002.86 489.658 1003 489.503 1003.16 489.343 1003.32 489.184 1003.47 489.037 1003.6 488.901 1003.74 488.766 1003.81 488.698 1003.83 488.698ZM1000.9 488.698 1001 488.698C1001.15 488.777 1001.37 488.945 1001.65 489.2 1001.93 489.455 1002.15 489.702 1002.33 489.941L1002.33 490.037C1002.23 490.117 1002.13 490.216 1002.01 490.336 1001.89 490.455 1001.77 490.579 1001.64 490.707 1001.51 490.834 1001.39 490.958 1001.28 491.077 1001.17 491.197 1001.08 491.288 1001.02 491.352L1000.92 491.352C1000.78 491.161 1000.59 490.946 1000.35 490.707 1000.11 490.467 999.869 490.284 999.615 490.156L999.615 490.061C999.615 490.045 999.678 489.961 999.805 489.81 999.932 489.658 1000.07 489.503 1000.23 489.343 1000.39 489.184 1000.54 489.037 1000.67 488.901 1000.81 488.766 1000.88 488.698 1000.9 488.698ZM899.261 487.215C899.435 487.215 899.61 487.255 899.784 487.335 899.959 487.414 900.046 487.558 900.046 487.765 900.046 488.02 899.975 488.251 899.832 488.459 899.61 488.267 899.276 488.172 898.832 488.172 898.689 488.172 898.542 488.192 898.392 488.232 898.241 488.271 898.102 488.335 897.975 488.423 897.848 488.51 897.741 488.626 897.654 488.77 897.566 488.913 897.523 489.08 897.523 489.272 897.523 489.591 897.642 489.818 897.88 489.953 898.118 490.089 898.396 490.156 898.713 490.156 899.078 490.156 899.388 490.117 899.641 490.037 899.895 489.957 900.157 489.854 900.427 489.726L900.499 489.75 900.427 490.563C899.951 490.707 899.471 490.882 898.987 491.089 898.503 491.296 898.062 491.488 897.666 491.663L896.332 492.333C896.332 492.205 896.352 492.018 896.392 491.771 896.432 491.524 896.547 491.344 896.737 491.233L897.356 490.898C897.166 490.818 896.995 490.699 896.844 490.539 896.694 490.38 896.618 490.156 896.618 489.87 896.618 489.662 896.694 489.403 896.844 489.092 896.995 488.781 897.193 488.491 897.439 488.22 897.685 487.949 897.967 487.713 898.285 487.514 898.602 487.315 898.927 487.215 899.261 487.215ZM904.974 481.404C904.577 481.946 904.157 482.437 903.712 482.875 903.268 483.313 902.744 483.716 902.141 484.083 902.395 484.114 902.641 484.13 902.879 484.13 903.117 484.13 903.443 484.13 903.855 484.13 904.665 484.13 905.224 484.047 905.533 483.879 905.843 483.712 905.998 483.58 905.998 483.485 905.998 483.421 905.99 483.341 905.974 483.246 905.958 483.15 905.918 483.022 905.855 482.863 905.791 482.704 905.688 482.504 905.545 482.265 905.403 482.026 905.212 481.739 904.974 481.404ZM892.952 480.376C892.46 480.376 892.024 480.563 891.643 480.938 891.262 481.313 890.929 481.835 890.643 482.504 890.865 482.839 891.155 483.13 891.512 483.377 891.869 483.624 892.246 483.832 892.643 483.999 893.039 484.166 893.436 484.294 893.833 484.382 894.23 484.469 894.579 484.513 894.88 484.513 895.118 484.513 895.313 484.485 895.464 484.429 895.614 484.373 895.69 484.282 895.69 484.154 895.69 483.788 895.602 483.385 895.428 482.947 895.253 482.508 895.031 482.098 894.761 481.715 894.492 481.333 894.198 481.014 893.88 480.759 893.563 480.504 893.254 480.376 892.952 480.376ZM978.368 479.515C978.035 479.515 977.737 479.595 977.475 479.754 977.213 479.914 976.995 480.109 976.82 480.34 976.646 480.571 976.515 480.822 976.428 481.093 976.34 481.364 976.297 481.612 976.297 481.835 976.297 482.281 976.519 482.62 976.963 482.851 977.408 483.082 977.987 483.198 978.701 483.198 979.352 483.198 980.074 483.102 980.867 482.911 980.788 482.273 980.645 481.735 980.439 481.297 980.233 480.858 980.002 480.508 979.749 480.245 979.495 479.982 979.241 479.794 978.987 479.683 978.733 479.571 978.527 479.515 978.368 479.515ZM943.706 479.228C943.96 479.228 944.214 479.288 944.468 479.408 944.722 479.527 944.849 479.738 944.849 480.041 944.849 480.424 944.746 480.767 944.54 481.07 944.206 480.783 943.714 480.639 943.064 480.639 942.857 480.639 942.643 480.671 942.421 480.735 942.199 480.799 941.992 480.898 941.802 481.034 941.611 481.169 941.453 481.337 941.326 481.536 941.199 481.735 941.135 481.978 941.135 482.265 941.135 482.743 941.31 483.082 941.659 483.281 942.008 483.481 942.421 483.58 942.897 483.58 943.437 483.58 943.893 483.521 944.266 483.401 944.639 483.281 945.024 483.134 945.42 482.959L945.516 482.983 945.42 484.178C944.706 484.401 943.992 484.664 943.278 484.967 942.564 485.27 941.921 485.557 941.35 485.828L939.374 486.809C939.374 486.617 939.397 486.338 939.445 485.972 939.524 485.605 939.699 485.342 939.969 485.183L940.873 484.68C940.604 484.569 940.358 484.393 940.135 484.154 939.913 483.915 939.802 483.58 939.802 483.15 939.802 482.831 939.913 482.449 940.135 482.002 940.358 481.556 940.647 481.125 941.004 480.711 941.361 480.296 941.774 479.946 942.242 479.659 942.71 479.372 943.198 479.228 943.706 479.228ZM993.955 478.989C993.748 478.989 993.522 479.005 993.276 479.037 993.03 479.069 992.784 479.109 992.538 479.156 992.292 479.204 992.058 479.26 991.836 479.324 991.614 479.388 991.431 479.451 991.289 479.515 991.527 479.834 991.753 480.149 991.967 480.46 992.181 480.771 992.407 481.074 992.645 481.368 992.884 481.663 993.137 481.938 993.407 482.193 993.677 482.449 993.987 482.68 994.336 482.887 995.002 482.393 995.478 481.946 995.764 481.548 996.05 481.149 996.193 480.767 996.193 480.4 996.193 480.241 996.161 480.077 996.097 479.91 996.034 479.742 995.919 479.591 995.752 479.455 995.585 479.32 995.355 479.208 995.062 479.121 994.768 479.033 994.399 478.989 993.955 478.989ZM879.52 478.75 879.615 478.75C879.742 478.909 879.9 479.156 880.091 479.491 880.281 479.826 880.464 480.197 880.638 480.603 880.813 481.01 880.964 481.432 881.091 481.871 881.218 482.309 881.281 482.704 881.281 483.054 881.281 484.617 881.111 485.912 880.769 486.94 880.428 487.968 880.019 488.789 879.543 489.403 879.067 490.017 878.583 490.451 878.091 490.707 877.599 490.962 877.202 491.089 876.901 491.089 876.504 491.089 876.08 491.049 875.627 490.97 875.175 490.89 874.75 490.794 874.354 490.683 874.131 490.619 873.901 490.551 873.663 490.479 873.425 490.408 873.195 490.332 872.973 490.252L872.997 490.109C874.266 490.077 875.365 489.885 876.294 489.535 877.222 489.184 877.988 488.738 878.591 488.196 879.194 487.654 879.643 487.052 879.936 486.39 880.23 485.729 880.377 485.071 880.377 484.417 880.377 483.588 879.877 482.552 878.877 481.309 878.734 481.149 878.662 481.014 878.662 480.902 878.662 480.838 878.686 480.767 878.734 480.687ZM978.523 477.578C978.966 477.578 979.385 477.722 979.78 478.009 980.175 478.296 980.523 478.71 980.823 479.252 981.124 479.794 981.361 480.456 981.535 481.237 981.709 482.018 981.796 482.895 981.796 483.867 981.796 484.983 981.637 485.988 981.32 486.88 981.002 487.773 980.61 488.53 980.141 489.152 979.673 489.774 979.189 490.252 978.689 490.587 978.189 490.922 977.773 491.089 977.439 491.089 977.043 491.089 976.618 491.049 976.166 490.97 975.714 490.89 975.289 490.794 974.892 490.683 974.67 490.619 974.44 490.551 974.202 490.479 973.964 490.408 973.734 490.332 973.511 490.252L973.535 490.109C974.821 490.061 975.916 489.873 976.82 489.547 977.725 489.22 978.467 488.801 979.046 488.291 979.625 487.781 980.062 487.207 980.356 486.57 980.649 485.932 980.828 485.278 980.891 484.609 979.78 484.832 978.947 484.943 978.392 484.943 977.439 484.943 976.717 484.736 976.225 484.322 975.733 483.907 975.487 483.246 975.487 482.337 975.487 481.811 975.562 481.269 975.713 480.711 975.863 480.153 976.072 479.643 976.341 479.18 976.61 478.718 976.93 478.335 977.302 478.033 977.673 477.73 978.08 477.578 978.523 477.578ZM970.803 477.578 970.899 477.578C971.295 478.312 971.589 479.049 971.779 479.79 971.97 480.531 972.065 481.221 972.065 481.859 972.065 482.209 972.018 482.552 971.922 482.887 971.827 483.222 971.708 483.533 971.565 483.82 971.422 484.107 971.268 484.362 971.101 484.585 970.934 484.808 970.78 484.983 970.637 485.111 970.304 485.43 969.958 485.673 969.601 485.84 969.244 486.008 968.859 486.091 968.447 486.091 968.256 486.091 968.054 486.067 967.84 486.02 967.625 485.972 967.415 485.88 967.209 485.745 967.002 485.609 966.816 485.426 966.649 485.195 966.483 484.963 966.36 484.656 966.28 484.274 965.82 484.784 965.308 485.214 964.745 485.565 964.181 485.916 963.535 486.091 962.805 486.091 962.44 486.091 962.079 486.043 961.721 485.948 961.364 485.852 961.031 485.689 960.722 485.458 960.412 485.226 960.15 484.92 959.936 484.537 959.722 484.154 959.583 483.684 959.519 483.126L956.282 484.178C956.409 484.37 956.536 484.68 956.663 485.111 956.79 485.541 956.853 485.98 956.853 486.426 956.853 487.813 956.683 488.981 956.341 489.929 956 490.878 955.591 491.647 955.115 492.237 954.639 492.827 954.155 493.253 953.663 493.516 953.171 493.779 952.774 493.911 952.473 493.911 952.076 493.911 951.652 493.871 951.199 493.791 950.747 493.712 950.322 493.616 949.926 493.504 949.703 493.441 949.473 493.373 949.235 493.301 948.997 493.229 948.767 493.154 948.545 493.074L948.569 492.93C949.838 492.899 950.937 492.707 951.866 492.357 952.794 492.006 953.56 491.559 954.163 491.017 954.766 490.475 955.214 489.873 955.508 489.212 955.802 488.55 955.948 487.893 955.948 487.239 955.948 486.649 955.802 486.127 955.508 485.673 955.214 485.218 954.687 484.776 953.925 484.346 954.417 483.038 954.734 482.369 954.877 482.337 955.147 482.273 955.449 482.213 955.782 482.158 956.115 482.102 956.472 482.034 956.853 481.954 957.361 481.843 957.79 481.743 958.139 481.655 958.488 481.568 958.781 481.48 959.02 481.392 959.258 481.305 959.452 481.217 959.603 481.129 959.754 481.042 959.892 480.934 960.019 480.806 960.178 480.663 960.305 480.512 960.4 480.352 960.495 480.193 960.591 480.065 960.686 479.97 960.718 479.938 960.749 479.922 960.781 479.922 960.813 479.922 960.845 479.934 960.876 479.958 960.908 479.982 960.932 480.001 960.948 480.017 960.868 480.145 960.797 480.352 960.734 480.639 960.67 480.926 960.638 481.197 960.638 481.452 960.638 481.787 960.682 482.114 960.769 482.433 960.857 482.751 961.003 483.03 961.21 483.27 961.416 483.509 961.686 483.704 962.019 483.855 962.352 484.007 962.773 484.083 963.281 484.083 963.693 484.083 964.062 484.027 964.388 483.915 964.713 483.804 964.995 483.664 965.233 483.497 965.471 483.329 965.665 483.146 965.816 482.947 965.967 482.747 966.074 482.56 966.138 482.385 966.312 481.938 966.483 481.58 966.649 481.309 966.816 481.038 966.955 480.862 967.066 480.783 967.082 480.767 967.106 480.759 967.137 480.759 967.169 480.759 967.201 480.771 967.233 480.795 967.264 480.818 967.288 480.838 967.304 480.854 967.225 480.982 967.153 481.189 967.09 481.476 967.026 481.763 966.995 482.034 966.995 482.289 966.995 482.815 967.133 483.246 967.411 483.58 967.689 483.915 968.169 484.083 968.851 484.083 969.677 484.083 970.256 483.955 970.589 483.7 970.923 483.445 971.089 483.11 971.089 482.696 971.089 482.457 971.022 482.134 970.887 481.727 970.752 481.321 970.43 480.799 969.923 480.161 969.827 480.049 969.78 479.914 969.78 479.754 969.78 479.611 969.812 479.483 969.875 479.372ZM868.616 477.578 868.712 477.578C869.108 478.312 869.402 479.049 869.592 479.79 869.783 480.531 869.878 481.221 869.878 481.859 869.878 482.193 869.807 482.532 869.664 482.875 869.521 483.218 869.35 483.533 869.152 483.82 868.954 484.107 868.747 484.362 868.533 484.585 868.319 484.808 868.132 484.975 867.974 485.087 867.545 485.422 866.966 485.705 866.236 485.936 865.506 486.167 864.7 486.354 863.82 486.498 862.939 486.641 862.014 486.745 861.046 486.809 860.078 486.872 859.142 486.904 858.237 486.904 856.92 486.904 855.801 486.789 854.88 486.558 853.96 486.326 853.214 486.004 852.643 485.589 852.071 485.175 851.655 484.68 851.393 484.107 851.131 483.533 851 482.903 851 482.217 851 481.596 851.067 481.022 851.202 480.496 851.337 479.97 851.484 479.627 851.643 479.467 851.674 479.435 851.706 479.42 851.738 479.42 851.786 479.42 851.833 479.443 851.881 479.491 851.865 479.619 851.849 479.774 851.833 479.958 851.817 480.141 851.809 480.272 851.809 480.352 851.809 481.803 852.432 482.887 853.678 483.604 854.924 484.322 856.912 484.68 859.642 484.68 862.657 484.68 864.954 484.497 866.533 484.13 868.112 483.764 868.902 483.285 868.902 482.696 868.902 482.457 868.835 482.134 868.7 481.727 868.565 481.321 868.243 480.799 867.736 480.161 867.64 480.049 867.593 479.914 867.593 479.754 867.593 479.611 867.625 479.483 867.688 479.372ZM994.478 477.196C995.113 477.196 995.645 477.255 996.073 477.375 996.502 477.495 996.843 477.658 997.097 477.865 997.351 478.072 997.53 478.312 997.633 478.583 997.736 478.854 997.787 479.133 997.787 479.42 997.787 479.993 997.565 480.619 997.121 481.297 996.677 481.974 996.026 482.648 995.169 483.317 995.772 483.588 996.438 483.784 997.169 483.903L999.426 484.067 1000.8 483.915C1001.22 483.804 1001.55 483.66 1001.82 483.485 1002.08 483.309 1002.28 483.126 1002.42 482.935 1002.57 482.743 1002.67 482.56 1002.73 482.385 1002.89 481.938 1003.06 481.58 1003.23 481.309 1003.41 481.038 1003.55 480.862 1003.66 480.783 1003.68 480.767 1003.7 480.759 1003.73 480.759 1003.76 480.759 1003.8 480.771 1003.83 480.795 1003.86 480.818 1003.88 480.838 1003.9 480.854 1003.82 480.982 1003.75 481.189 1003.69 481.476 1003.62 481.763 1003.59 482.034 1003.59 482.289 1003.59 482.959 1003.8 483.425 1004.22 483.688 1004.43 483.82 1004.71 483.918 1005.07 483.984L1006.17 484.069 1007.34 483.987C1007.72 483.923 1008.04 483.828 1008.29 483.7 1008.78 483.445 1009.02 483.11 1009.02 482.696 1009.02 482.457 1008.96 482.134 1008.82 481.727 1008.69 481.321 1008.37 480.799 1007.86 480.161 1007.76 480.049 1007.71 479.914 1007.71 479.754 1007.71 479.611 1007.75 479.483 1007.81 479.372L1008.74 477.578 1008.83 477.578C1009.23 478.312 1009.52 479.049 1009.71 479.79 1009.9 480.531 1010 481.221 1010 481.859 1010 482.209 1009.95 482.552 1009.86 482.887 1009.76 483.222 1009.64 483.533 1009.5 483.82 1009.36 484.107 1009.2 484.362 1009.04 484.585 1008.87 484.808 1008.71 484.983 1008.57 485.111 1008.24 485.43 1007.83 485.673 1007.36 485.84L1006.36 485.975 1005.88 486.091 1005.63 486.074 1005.5 486.091 1005.44 486.061 1004.84 486.02C1004.51 485.972 1004.22 485.88 1003.96 485.745 1003.7 485.609 1003.47 485.426 1003.28 485.195 1003.09 484.963 1002.96 484.656 1002.88 484.274 1002.73 484.465 1002.57 484.664 1002.38 484.872 1002.19 485.079 1001.94 485.274 1001.63 485.458 1001.32 485.641 1000.94 485.792 1000.48 485.912L999.46 486.021 999.168 486.091 998.943 486.077 998.805 486.091 998.751 486.064 997.612 485.99C996.106 485.786 994.752 485.278 993.55 484.465 993.01 484.832 992.503 485.23 992.026 485.661 991.55 486.091 991.13 486.558 990.765 487.06 990.4 487.562 990.11 488.104 989.896 488.686 989.682 489.268 989.574 489.885 989.574 490.539 989.574 491.368 989.737 492.121 990.062 492.799 990.388 493.476 990.888 494.058 991.562 494.545 992.237 495.031 993.102 495.405 994.157 495.668 995.213 495.931 996.47 496.063 997.93 496.063 999.898 496.063 1001.36 495.935 1002.31 495.68 1002.34 495.712 1002.36 495.76 1002.36 495.824 1002.36 495.935 1002.31 496.023 1002.22 496.087 1002.1 496.151 1001.89 496.254 1001.56 496.398 1001.24 496.541 1000.88 496.693 1000.5 496.852 1000.12 497.012 999.755 497.167 999.406 497.318 999.057 497.47 998.803 497.578 998.645 497.641 998.438 497.721 998.125 497.801 997.704 497.88 997.284 497.96 996.74 498 996.073 498 994.851 498 993.737 497.861 992.729 497.582 991.721 497.303 990.86 496.896 990.146 496.362 989.432 495.828 988.876 495.174 988.479 494.401 988.083 493.628 987.884 492.747 987.884 491.759 987.884 490.866 988.019 490.041 988.289 489.284 988.559 488.526 988.924 487.829 989.384 487.191 989.844 486.554 990.372 485.968 990.967 485.434 991.562 484.9 992.185 484.401 992.836 483.939 992.439 483.636 992.066 483.254 991.717 482.791 991.368 482.329 991.039 481.879 990.729 481.44 990.42 481.002 990.122 480.615 989.836 480.28 989.551 479.946 989.265 479.754 988.979 479.707L989.646 478.224C989.995 478.16 990.38 478.068 990.801 477.949 991.221 477.829 991.646 477.714 992.074 477.602 992.503 477.491 992.923 477.395 993.336 477.315 993.748 477.236 994.129 477.196 994.478 477.196ZM861.879 474.446 861.975 474.446C862.133 474.525 862.352 474.693 862.629 474.948 862.907 475.203 863.133 475.45 863.308 475.689L863.308 475.785C863.212 475.864 863.105 475.964 862.986 476.084 862.867 476.203 862.744 476.327 862.617 476.454 862.49 476.582 862.371 476.705 862.26 476.825 862.149 476.945 862.062 477.036 861.998 477.1L861.903 477.1C861.76 476.909 861.57 476.693 861.332 476.454 861.094 476.215 860.848 476.032 860.594 475.904L860.594 475.809C860.594 475.793 860.657 475.709 860.784 475.558 860.911 475.406 861.054 475.251 861.213 475.091 861.371 474.932 861.518 474.784 861.653 474.649 861.788 474.513 861.863 474.446 861.879 474.446ZM858.951 474.446 859.046 474.446C859.205 474.525 859.423 474.693 859.701 474.948 859.979 475.203 860.205 475.45 860.38 475.689L860.38 475.785C860.284 475.864 860.177 475.964 860.058 476.084 859.939 476.203 859.816 476.327 859.689 476.454 859.562 476.582 859.443 476.705 859.332 476.825 859.221 476.945 859.134 477.036 859.07 477.1L858.975 477.1C858.832 476.909 858.642 476.693 858.404 476.454 858.166 476.215 857.92 476.032 857.666 475.904L857.666 475.809C857.666 475.793 857.729 475.709 857.856 475.558 857.983 475.406 858.126 475.251 858.285 475.091 858.443 474.932 858.59 474.784 858.725 474.649 858.86 474.513 858.935 474.446 858.951 474.446ZM927.328 472.843C927.042 472.843 926.788 472.923 926.566 473.083 926.344 473.242 926.153 473.437 925.995 473.668 925.836 473.9 925.713 474.151 925.626 474.422 925.538 474.693 925.495 474.94 925.495 475.163 925.495 475.402 925.598 475.621 925.804 475.821 926.011 476.02 926.284 476.187 926.626 476.323 926.967 476.458 927.36 476.562 927.804 476.634 928.248 476.705 928.709 476.741 929.185 476.741 929.518 476.741 929.867 476.717 930.232 476.67 930.153 476.223 930.034 475.773 929.875 475.318 929.716 474.864 929.518 474.454 929.28 474.087 929.042 473.72 928.76 473.421 928.435 473.19 928.109 472.959 927.74 472.843 927.328 472.843ZM967.28 472.078 967.375 472.078C967.534 472.158 967.752 472.325 968.03 472.58 968.308 472.835 968.534 473.083 968.708 473.322L968.708 473.417C968.613 473.497 968.506 473.597 968.387 473.716 968.268 473.836 968.145 473.959 968.018 474.087 967.891 474.214 967.772 474.338 967.661 474.458 967.55 474.577 967.463 474.669 967.399 474.733L967.304 474.733C967.161 474.541 966.971 474.326 966.733 474.087 966.495 473.848 966.249 473.664 965.995 473.537L965.995 473.441C965.995 473.425 966.058 473.342 966.185 473.19 966.312 473.039 966.455 472.883 966.614 472.724 966.772 472.564 966.919 472.417 967.054 472.281 967.189 472.146 967.264 472.078 967.28 472.078ZM964.352 472.078 964.447 472.078C964.606 472.158 964.824 472.325 965.102 472.58 965.38 472.835 965.606 473.083 965.78 473.322L965.78 473.417C965.685 473.497 965.578 473.597 965.459 473.716 965.34 473.836 965.217 473.959 965.09 474.087 964.963 474.214 964.844 474.338 964.733 474.458 964.622 474.577 964.535 474.669 964.471 474.733L964.376 474.733C964.233 474.541 964.043 474.326 963.805 474.087 963.566 473.848 963.32 473.664 963.067 473.537L963.067 473.441C963.067 473.425 963.13 473.342 963.257 473.19 963.384 473.039 963.527 472.883 963.685 472.724 963.844 472.564 963.991 472.417 964.126 472.281 964.261 472.146 964.336 472.078 964.352 472.078ZM927.899 470.906C928.296 470.906 928.697 471.034 929.101 471.289 929.506 471.544 929.867 471.923 930.185 472.425 930.502 472.927 930.76 473.545 930.958 474.278 931.157 475.012 931.256 475.864 931.256 476.837 931.256 477.443 931.212 478.021 931.125 478.571 931.038 479.121 930.875 479.603 930.637 480.017 930.462 480.288 930.228 480.583 929.935 480.902 929.641 481.221 929.335 481.516 929.018 481.787 929.431 481.93 929.835 482.098 930.232 482.289 930.629 482.48 930.982 482.7 931.292 482.947 931.601 483.194 931.847 483.465 932.03 483.76 932.212 484.055 932.303 484.37 932.303 484.704 932.303 484.943 932.22 485.262 932.053 485.661 931.887 486.059 931.629 486.486 931.28 486.94 930.93 487.395 930.494 487.849 929.97 488.303 929.447 488.758 928.832 489.172 928.125 489.547 927.419 489.921 926.614 490.224 925.709 490.455 924.804 490.687 923.805 490.802 922.71 490.802 921.805 490.802 921.039 490.714 920.412 490.539 919.785 490.364 919.27 490.129 918.865 489.834 918.46 489.539 918.147 489.204 917.924 488.829 917.702 488.455 917.54 488.072 917.436 487.681 917.333 487.291 917.27 486.908 917.246 486.534 917.222 486.159 917.21 485.828 917.21 485.541 917.21 485.111 917.254 484.672 917.341 484.226 917.429 483.78 917.528 483.369 917.639 482.995 917.75 482.62 917.861 482.305 917.972 482.05 918.083 481.795 918.17 481.635 918.234 481.572 918.266 481.54 918.297 481.524 918.329 481.524 918.409 481.524 918.488 481.564 918.567 481.643 918.44 481.962 918.333 482.373 918.246 482.875 918.159 483.377 918.115 483.891 918.115 484.417 918.115 484.896 918.21 485.374 918.401 485.852 918.591 486.33 918.897 486.761 919.317 487.143 919.738 487.526 920.285 487.837 920.96 488.076 921.634 488.315 922.448 488.435 923.4 488.435 924.4 488.435 925.348 488.339 926.245 488.148 927.141 487.957 927.931 487.721 928.613 487.442 929.296 487.163 929.835 486.864 930.232 486.546 930.629 486.227 930.827 485.932 930.827 485.661 930.827 485.374 930.649 485.083 930.292 484.788 929.935 484.493 929.474 484.214 928.911 483.951 928.348 483.688 927.729 483.445 927.054 483.222 926.38 482.998 925.733 482.823 925.114 482.696 925.288 482.313 925.491 481.982 925.721 481.703 925.951 481.424 926.169 481.277 926.376 481.261 927.756 480.91 928.744 480.527 929.339 480.113 929.935 479.699 930.232 479.149 930.232 478.463 930.058 478.479 929.883 478.491 929.708 478.499 929.534 478.507 929.359 478.511 929.185 478.511 928.55 478.511 927.959 478.459 927.411 478.355 926.864 478.252 926.388 478.088 925.983 477.865 925.578 477.642 925.261 477.351 925.031 476.992 924.8 476.634 924.685 476.191 924.685 475.665 924.685 475.139 924.761 474.597 924.911 474.039 925.062 473.481 925.281 472.971 925.566 472.509 925.852 472.046 926.193 471.664 926.59 471.361 926.987 471.058 927.423 470.906 927.899 470.906ZM965.685 469.041 965.78 469.041C965.939 469.121 966.157 469.288 966.435 469.543 966.713 469.799 966.939 470.046 967.114 470.285L967.114 470.38C967.018 470.46 966.911 470.56 966.792 470.679 966.673 470.799 966.55 470.922 966.423 471.05 966.296 471.178 966.177 471.301 966.066 471.421 965.955 471.54 965.868 471.632 965.804 471.696L965.709 471.696C965.566 471.504 965.376 471.289 965.138 471.05 964.9 470.811 964.654 470.628 964.4 470.5L964.4 470.404C964.4 470.388 964.463 470.305 964.59 470.153 964.717 470.002 964.86 469.846 965.019 469.687 965.177 469.527 965.324 469.38 965.459 469.245 965.594 469.109 965.669 469.041 965.685 469.041ZM949.247 468.922 949.319 468.946C949.366 469.201 949.414 469.603 949.461 470.153 949.509 470.703 949.557 471.345 949.604 472.078 949.652 472.812 949.699 473.609 949.747 474.47 949.795 475.33 949.834 476.203 949.866 477.088 949.898 477.973 949.922 478.842 949.938 479.695 949.953 480.547 949.961 481.325 949.961 482.026 949.961 482.472 949.941 482.867 949.902 483.21 949.862 483.553 949.791 483.887 949.688 484.214 949.584 484.541 949.438 484.88 949.247 485.23 949.057 485.581 948.819 485.972 948.533 486.402L948.438 486.402 948.319 486.306C948.398 485.892 948.45 485.238 948.473 484.346 948.497 483.453 948.509 482.385 948.509 481.141 948.509 480.456 948.493 479.667 948.462 478.774 948.43 477.881 948.39 476.984 948.343 476.084 948.295 475.183 948.235 474.322 948.164 473.501 948.093 472.68 948.017 471.991 947.938 471.433 947.922 471.385 947.914 471.321 947.914 471.241 947.914 471.162 947.914 471.106 947.914 471.074 947.914 470.946 947.93 470.819 947.962 470.691 947.993 470.564 948.049 470.452 948.128 470.357ZM873.366 468.922 873.437 468.946C873.485 469.201 873.532 469.603 873.58 470.153 873.628 470.703 873.675 471.345 873.723 472.078 873.77 472.812 873.818 473.609 873.866 474.47 873.913 475.33 873.953 476.203 873.985 477.088 874.016 477.973 874.04 478.842 874.056 479.695 874.072 480.547 874.08 481.325 874.08 482.026 874.08 482.472 874.06 482.867 874.02 483.21 873.981 483.553 873.909 483.887 873.806 484.214 873.703 484.541 873.556 484.88 873.366 485.23 873.175 485.581 872.937 485.972 872.651 486.402L872.556 486.402 872.437 486.306C872.517 485.892 872.568 485.238 872.592 484.346 872.616 483.453 872.628 482.385 872.628 481.141 872.628 480.456 872.612 479.667 872.58 478.774 872.548 477.881 872.509 476.984 872.461 476.084 872.413 475.183 872.354 474.322 872.283 473.501 872.211 472.68 872.136 471.991 872.056 471.433 872.04 471.385 872.033 471.321 872.033 471.241 872.033 471.162 872.033 471.106 872.033 471.074 872.033 470.946 872.048 470.819 872.08 470.691 872.112 470.564 872.167 470.452 872.247 470.357ZM885.483 468.659C885.546 468.659 885.598 468.683 885.638 468.73 885.677 468.778 885.697 468.826 885.697 468.874L885.769 470.93C885.8 471.568 885.824 472.297 885.84 473.118 885.856 473.939 885.864 474.804 885.864 475.713 885.864 476.239 885.864 476.773 885.864 477.315 885.864 477.857 885.848 478.391 885.816 478.917 885.8 479.109 885.792 479.292 885.792 479.467 885.792 479.643 885.792 479.818 885.792 479.993 885.792 480.647 885.832 481.229 885.911 481.739 885.991 482.249 886.134 482.68 886.34 483.03 886.546 483.381 886.832 483.644 887.197 483.82L888.177 484.003 888.203 483.999C888.401 483.943 888.607 483.832 888.822 483.664 889.036 483.497 889.258 483.262 889.488 482.959 889.718 482.656 889.945 482.249 890.167 481.739 890.484 481.022 890.806 480.456 891.131 480.041 891.456 479.627 891.766 479.312 892.059 479.097 892.353 478.882 892.619 478.746 892.857 478.69 893.095 478.634 893.277 478.607 893.404 478.607 893.801 478.607 894.198 478.734 894.595 478.989 894.991 479.244 895.349 479.571 895.666 479.97 895.983 480.368 896.237 480.818 896.428 481.321 896.618 481.823 896.713 482.313 896.713 482.791 896.713 483.126 896.638 483.493 896.487 483.891 896.336 484.29 896.154 484.664 895.94 485.015 895.725 485.366 895.507 485.657 895.285 485.888 895.063 486.119 894.872 486.235 894.714 486.235 893.952 486.235 893.146 486.075 892.297 485.757 891.448 485.438 890.667 484.912 889.953 484.178L889.881 484.322 889.22 485.149 889.22 485.159C889.22 485.525 889.121 485.772 888.923 485.9 888.724 486.027 888.459 486.091 888.125 486.091L887.532 486.045 887.215 486.091 887.039 486.003 886.221 485.757C885.745 485.533 885.384 485.222 885.138 484.824 884.892 484.425 884.733 483.967 884.662 483.449 884.59 482.931 884.554 482.369 884.554 481.763L884.554 477.961C884.554 477.228 884.543 476.458 884.519 475.653 884.495 474.848 884.455 474.087 884.4 473.37 884.344 472.652 884.277 472.022 884.197 471.48 884.118 470.938 884.023 470.564 883.912 470.357 884.039 470.245 884.174 470.105 884.316 469.938 884.459 469.771 884.598 469.607 884.733 469.448 884.868 469.288 884.987 469.141 885.09 469.005 885.193 468.87 885.269 468.778 885.316 468.73 885.364 468.683 885.419 468.659 885.483 468.659ZM905.855 468.348 905.95 468.348C905.966 468.428 906.026 468.607 906.129 468.886 906.232 469.165 906.359 469.48 906.51 469.83 906.66 470.181 906.827 470.528 907.009 470.871 907.192 471.213 907.378 471.488 907.569 471.696L907.497 471.839C907.291 471.839 907.121 471.839 906.986 471.839 906.851 471.839 906.72 471.823 906.593 471.791 906.688 472.509 906.752 473.15 906.783 473.716 906.815 474.282 906.831 474.868 906.831 475.474 906.831 476.43 906.724 477.315 906.51 478.128 906.295 478.941 905.99 479.707 905.593 480.424 906.244 481.508 906.569 482.257 906.569 482.672 906.569 483.007 906.517 483.345 906.414 483.688 906.311 484.031 906.164 484.354 905.974 484.656 905.783 484.959 905.561 485.218 905.307 485.434 905.053 485.649 904.776 485.796 904.474 485.876 904.093 485.972 903.72 486.031 903.355 486.055 902.99 486.079 902.506 486.091 901.903 486.091 901.776 486.091 901.538 486.083 901.189 486.067 900.84 486.051 900.443 486.027 899.999 485.996L899.903 484.035C900.03 484.051 900.157 484.059 900.284 484.059 900.411 484.059 900.53 484.059 900.641 484.059 900.848 484.059 901.102 483.975 901.403 483.808 901.705 483.64 902.026 483.409 902.367 483.114 902.709 482.819 903.054 482.457 903.403 482.026 903.752 481.596 904.069 481.117 904.355 480.591 903.784 479.874 902.978 478.973 901.939 477.889 900.899 476.805 899.522 475.482 897.808 473.92L897.547 474.493 897.475 474.517C897.364 474.294 897.257 474.087 897.154 473.896 897.051 473.704 896.959 473.521 896.88 473.346 896.721 473.043 896.582 472.764 896.463 472.509 896.344 472.254 896.285 472.094 896.285 472.03 896.285 471.998 896.321 471.903 896.392 471.743 896.463 471.584 896.547 471.417 896.642 471.241L896.999 470.572 897.142 470.572C899.062 472.501 900.653 474.191 901.915 475.641 903.177 477.092 904.173 478.343 904.903 479.396 905.061 478.981 905.184 478.547 905.272 478.092 905.359 477.638 905.403 477.172 905.403 476.693 905.403 476.151 905.379 475.637 905.331 475.151 905.284 474.665 905.224 474.171 905.153 473.668 905.081 473.166 904.998 472.644 904.903 472.102 904.807 471.56 904.712 470.962 904.617 470.309 904.601 470.293 904.593 470.165 904.593 469.926 904.593 469.814 904.609 469.699 904.641 469.579 904.673 469.46 904.744 469.352 904.855 469.257ZM910.164 467.367C910.211 467.782 910.299 468.121 910.426 468.384 910.553 468.647 910.711 468.874 910.902 469.065 911.092 469.257 911.318 469.416 911.58 469.543 911.842 469.671 912.132 469.799 912.449 469.926L911.592 471.743C911.64 472.477 911.687 473.278 911.735 474.147 911.783 475.016 911.826 475.904 911.866 476.813 911.906 477.722 911.937 478.626 911.961 479.527 911.985 480.428 911.997 481.261 911.997 482.026 911.997 482.472 911.977 482.867 911.937 483.21 911.898 483.553 911.826 483.887 911.723 484.214 911.62 484.541 911.473 484.88 911.283 485.23 911.092 485.581 910.854 485.972 910.568 486.402L910.473 486.402 910.354 486.306C910.434 485.892 910.485 485.238 910.509 484.346 910.533 483.453 910.545 482.385 910.545 481.141 910.545 480.376 910.525 479.527 910.485 478.595 910.445 477.662 910.398 476.733 910.342 475.809 910.287 474.884 910.223 473.999 910.152 473.154 910.08 472.309 910.013 471.584 909.95 470.978 909.791 470.819 909.64 470.628 909.497 470.404 909.354 470.181 909.283 469.942 909.283 469.687 909.283 469.384 909.362 468.997 909.521 468.527 909.68 468.057 909.894 467.67 910.164 467.367ZM927.756 465 927.852 465C928.01 465.08 928.228 465.247 928.506 465.502 928.784 465.757 929.01 466.004 929.185 466.243L929.185 466.339C929.089 466.419 928.982 466.518 928.863 466.638 928.744 466.758 928.621 466.881 928.494 467.009 928.367 467.136 928.248 467.26 928.137 467.379 928.026 467.499 927.939 467.591 927.875 467.654L927.78 467.654C927.637 467.463 927.447 467.248 927.209 467.009 926.971 466.77 926.725 466.586 926.471 466.459L926.471 466.363C926.471 466.347 926.534 466.263 926.661 466.112 926.788 465.96 926.931 465.805 927.09 465.646 927.249 465.486 927.395 465.339 927.53 465.203 927.665 465.068 927.74 465 927.756 465Z" fill="#F1C8B9" fill-rule="evenodd"/><path d="M1031.36 479 1114.69 479C1116.52 479 1118 480.343 1118 482 1118 483.657 1116.52 485 1114.69 485L1031.36 485ZM746.307 479 828.968 479 828.968 485 746.307 485C744.48 485 743 483.657 743 482 743 480.343 744.48 479 746.307 479Z" fill="#F5D7CC" fill-rule="evenodd"/><path d="M1048.06 445.2C1047.33 446.211 1046.55 447.126 1045.73 447.945 1044.91 448.763 1043.94 449.514 1042.83 450.199 1043.3 450.258 1043.75 450.288 1044.19 450.288 1044.63 450.288 1045.23 450.288 1046 450.288 1047.49 450.288 1048.53 450.132 1049.1 449.819 1049.67 449.507 1049.96 449.261 1049.96 449.083 1049.96 448.964 1049.94 448.815 1049.91 448.637 1049.88 448.458 1049.81 448.22 1049.69 447.922 1049.58 447.625 1049.38 447.253 1049.12 446.807 1048.86 446.36 1048.5 445.825 1048.06 445.2ZM925.692 443.414C925.282 443.414 924.885 443.548 924.504 443.816 924.123 444.084 923.771 444.419 923.448 444.82 923.125 445.222 922.839 445.668 922.59 446.159 922.341 446.65 922.128 447.119 921.952 447.565 922.803 448.577 923.8 449.366 924.944 449.931 926.088 450.496 927.276 450.779 928.508 450.779 929.916 450.779 930.62 450.154 930.62 448.904 930.62 448.666 930.481 448.242 930.202 447.632 929.924 447.022 929.557 446.405 929.102 445.78 928.648 445.155 928.127 444.605 927.54 444.129 926.954 443.652 926.338 443.414 925.692 443.414ZM834.705 443.414C834.294 443.414 833.898 443.548 833.517 443.816 833.136 444.084 832.784 444.419 832.461 444.82 832.138 445.222 831.852 445.668 831.603 446.159 831.354 446.65 831.141 447.119 830.965 447.565 831.816 448.577 832.813 449.366 833.957 449.931 835.101 450.496 836.289 450.779 837.521 450.779 838.929 450.779 839.633 450.154 839.633 448.904 839.633 448.666 839.494 448.242 839.215 447.632 838.937 447.022 838.57 446.405 838.115 445.78 837.661 445.155 837.14 444.605 836.553 444.129 835.966 443.652 835.35 443.414 834.705 443.414ZM857.215 440.692C856.834 440.692 856.423 440.722 855.983 440.781 855.543 440.841 855.096 440.915 854.641 441.004 854.187 441.093 853.754 441.198 853.343 441.317 852.933 441.436 852.581 441.555 852.287 441.674 852.639 442.09 852.991 442.566 853.343 443.102 853.695 443.638 854.077 444.181 854.487 444.731 854.898 445.282 855.36 445.825 855.873 446.36 856.387 446.896 856.995 447.387 857.699 447.833 858.844 447.238 859.738 446.516 860.384 445.668 861.029 444.82 861.352 444.039 861.352 443.325 861.352 443.028 861.293 442.723 861.176 442.41 861.058 442.098 860.846 441.815 860.538 441.562 860.23 441.309 859.804 441.101 859.262 440.937 858.719 440.774 858.037 440.692 857.215 440.692ZM1003.59 438.058 1003.76 438.058C1004.5 439.427 1005.04 440.803 1005.39 442.187 1005.74 443.571 1005.92 444.858 1005.92 446.048 1005.92 446.673 1005.79 447.305 1005.52 447.945 1005.26 448.585 1004.94 449.172 1004.58 449.708 1004.21 450.243 1003.83 450.719 1003.43 451.136 1003.04 451.553 1002.69 451.865 1002.4 452.073 1001.61 452.698 1000.54 453.226 999.186 453.658 997.837 454.089 996.348 454.439 994.72 454.707 993.092 454.975 991.383 455.168 989.594 455.287 987.804 455.406 986.073 455.465 984.401 455.465 981.967 455.465 979.898 455.25 978.197 454.818 976.496 454.387 975.117 453.784 974.061 453.011 973.005 452.237 972.235 451.315 971.751 450.243 971.267 449.172 971.025 447.997 971.025 446.717 971.025 445.557 971.149 444.486 971.399 443.504 971.648 442.522 971.919 441.882 972.213 441.584 972.271 441.525 972.33 441.495 972.389 441.495 972.477 441.495 972.565 441.54 972.653 441.629 972.623 441.867 972.594 442.157 972.565 442.5 972.535 442.842 972.521 443.087 972.521 443.236 972.521 445.944 973.672 447.967 975.975 449.306 978.278 450.645 981.952 451.315 986.997 451.315 992.571 451.315 996.817 450.972 999.736 450.288 1002.65 449.604 1004.11 448.711 1004.11 447.61 1004.11 447.164 1003.99 446.561 1003.74 445.802 1003.49 445.044 1002.9 444.069 1001.96 442.879 1001.78 442.671 1001.69 442.418 1001.69 442.12 1001.69 441.852 1001.75 441.614 1001.87 441.406ZM991.002 432.211 991.178 432.211C991.471 432.36 991.874 432.673 992.388 433.149 992.901 433.625 993.319 434.086 993.642 434.532L993.642 434.711C993.466 434.86 993.268 435.046 993.048 435.269 992.828 435.492 992.6 435.723 992.366 435.961 992.131 436.199 991.911 436.429 991.706 436.652 991.5 436.876 991.339 437.047 991.222 437.166L991.046 437.166C990.782 436.809 990.43 436.407 989.99 435.961 989.549 435.514 989.095 435.172 988.625 434.934L988.625 434.756C988.625 434.726 988.743 434.57 988.978 434.287 989.212 434.004 989.476 433.714 989.77 433.417 990.063 433.119 990.334 432.844 990.584 432.591 990.833 432.338 990.972 432.211 991.002 432.211ZM985.589 432.211 985.765 432.211C986.059 432.36 986.462 432.673 986.975 433.149 987.489 433.625 987.907 434.086 988.229 434.532L988.229 434.711C988.053 434.86 987.855 435.046 987.635 435.269 987.415 435.492 987.188 435.723 986.953 435.961 986.719 436.199 986.499 436.429 986.293 436.652 986.088 436.876 985.927 437.047 985.809 437.166L985.633 437.166C985.369 436.809 985.017 436.407 984.577 435.961 984.137 435.514 983.683 435.172 983.213 434.934L983.213 434.756C983.213 434.726 983.331 434.57 983.565 434.287 983.8 434.004 984.064 433.714 984.357 433.417 984.651 433.119 984.922 432.844 985.171 432.591 985.421 432.338 985.56 432.211 985.589 432.211ZM879.323 432.211 879.499 432.211C879.792 432.36 880.196 432.673 880.709 433.149 881.222 433.625 881.641 434.086 881.963 434.532L881.963 434.711C881.787 434.86 881.589 435.046 881.369 435.269 881.149 435.492 880.922 435.723 880.687 435.961 880.453 436.199 880.232 436.429 880.027 436.652 879.822 436.876 879.66 437.047 879.543 437.166L879.367 437.166C879.103 436.809 878.751 436.407 878.311 435.961 877.871 435.514 877.416 435.172 876.947 434.934L876.947 434.756C876.947 434.726 877.064 434.57 877.299 434.287 877.534 434.004 877.798 433.714 878.091 433.417 878.384 433.119 878.656 432.844 878.905 432.591 879.154 432.338 879.294 432.211 879.323 432.211ZM873.911 432.211 874.087 432.211C874.38 432.36 874.784 432.673 875.297 433.149 875.81 433.625 876.228 434.086 876.551 434.532L876.551 434.711C876.375 434.86 876.177 435.046 875.957 435.269 875.737 435.492 875.51 435.723 875.275 435.961 875.04 436.199 874.82 436.429 874.615 436.652 874.41 436.876 874.248 437.047 874.131 437.166L873.955 437.166C873.691 436.809 873.339 436.407 872.899 435.961 872.459 435.514 872.004 435.172 871.535 434.934L871.535 434.756C871.535 434.726 871.652 434.57 871.887 434.287 872.121 434.004 872.385 433.714 872.679 433.417 872.972 433.119 873.244 432.844 873.493 432.591 873.742 432.338 873.881 432.211 873.911 432.211ZM1028.04 427.793 1028.21 427.793C1028.51 427.942 1028.91 428.254 1029.42 428.73 1029.94 429.206 1030.35 429.667 1030.68 430.114L1030.68 430.292C1030.5 430.441 1030.3 430.627 1030.08 430.85 1029.86 431.073 1029.63 431.304 1029.4 431.542 1029.16 431.78 1028.94 432.011 1028.74 432.234 1028.53 432.457 1028.37 432.628 1028.26 432.747L1028.08 432.747C1027.82 432.39 1027.46 431.988 1027.02 431.542 1026.58 431.096 1026.13 430.753 1025.66 430.515L1025.66 430.337C1025.66 430.307 1025.78 430.151 1026.01 429.868 1026.25 429.586 1026.51 429.295 1026.8 428.998 1027.1 428.7 1027.37 428.425 1027.62 428.172 1027.87 427.919 1028.01 427.793 1028.04 427.793ZM1022.62 427.793 1022.8 427.793C1023.09 427.942 1023.5 428.254 1024.01 428.73 1024.52 429.206 1024.94 429.667 1025.26 430.114L1025.26 430.292C1025.09 430.441 1024.89 430.627 1024.67 430.85 1024.45 431.073 1024.22 431.304 1023.99 431.542 1023.75 431.78 1023.53 432.011 1023.33 432.234 1023.12 432.457 1022.96 432.628 1022.84 432.747L1022.67 432.747C1022.4 432.39 1022.05 431.988 1021.61 431.542 1021.17 431.096 1020.72 430.753 1020.25 430.515L1020.25 430.337C1020.25 430.307 1020.36 430.151 1020.6 429.868 1020.83 429.586 1021.1 429.295 1021.39 428.998 1021.68 428.7 1021.96 428.425 1022.21 428.172 1022.45 427.919 1022.59 427.793 1022.62 427.793ZM988.053 426.543 988.229 426.543C988.523 426.692 988.926 427.004 989.44 427.48 989.953 427.956 990.371 428.418 990.694 428.864L990.694 429.042C990.518 429.191 990.32 429.377 990.1 429.6 989.88 429.824 989.652 430.054 989.417 430.292 989.183 430.53 988.963 430.761 988.758 430.984 988.552 431.207 988.391 431.378 988.273 431.497L988.097 431.497C987.833 431.14 987.481 430.739 987.041 430.292 986.601 429.846 986.147 429.504 985.677 429.266L985.677 429.087C985.677 429.057 985.795 428.901 986.029 428.618 986.264 428.336 986.528 428.046 986.821 427.748 987.115 427.451 987.386 427.175 987.635 426.922 987.885 426.669 988.024 426.543 988.053 426.543ZM1025.09 422.124 1025.26 422.124C1025.56 422.273 1025.96 422.586 1026.47 423.062 1026.99 423.538 1027.4 423.999 1027.73 424.445L1027.73 424.624C1027.55 424.773 1027.35 424.958 1027.13 425.182 1026.91 425.405 1026.69 425.635 1026.45 425.874 1026.22 426.112 1026 426.342 1025.79 426.565 1025.59 426.788 1025.42 426.96 1025.31 427.079L1025.13 427.079C1024.87 426.722 1024.52 426.32 1024.08 425.874 1023.64 425.427 1023.18 425.085 1022.71 424.847L1022.71 424.668C1022.71 424.639 1022.83 424.482 1023.06 424.2 1023.3 423.917 1023.56 423.627 1023.86 423.329 1024.15 423.032 1024.42 422.757 1024.67 422.504 1024.92 422.251 1025.06 422.124 1025.09 422.124ZM1015.04 421.41C1015.16 421.41 1015.26 421.455 1015.33 421.544 1015.4 421.633 1015.44 421.723 1015.44 421.812L1015.57 425.65C1015.63 426.841 1015.68 428.202 1015.7 429.734 1015.73 431.267 1015.75 432.881 1015.75 434.577 1015.75 435.559 1015.75 436.556 1015.75 437.567 1015.75 438.579 1015.72 439.576 1015.66 440.558 1015.63 440.915 1015.62 441.257 1015.62 441.584 1015.62 441.912 1015.62 442.239 1015.62 442.566 1015.62 443.786 1015.69 444.872 1015.84 445.825 1015.98 446.777 1016.25 447.58 1016.63 448.235 1017.01 448.89 1017.54 449.38 1018.21 449.708 1018.55 449.871 1018.94 449.994 1019.37 450.076L1020.75 450.194 1023.21 450.02C1023.92 449.901 1024.5 449.723 1024.96 449.485 1025.86 449.008 1026.32 448.384 1026.32 447.61 1026.32 447.164 1026.19 446.561 1025.95 445.802 1025.7 445.044 1025.1 444.069 1024.16 442.879 1023.99 442.671 1023.9 442.418 1023.9 442.12 1023.9 441.852 1023.96 441.614 1024.08 441.406L1025.79 438.058 1025.97 438.058C1026.7 439.427 1027.24 440.803 1027.6 442.187 1027.95 443.571 1028.12 444.858 1028.12 446.048 1028.12 446.702 1028.04 447.342 1027.86 447.967 1027.68 448.592 1027.46 449.172 1027.2 449.708 1026.94 450.243 1026.65 450.719 1026.34 451.136 1026.03 451.553 1025.75 451.88 1025.48 452.118 1024.87 452.713 1024.12 453.167 1023.24 453.479 1022.8 453.635 1022.29 453.753 1021.72 453.831L1020.09 453.931 1019.93 453.948 1019.88 453.944 1019.81 453.948 1019.75 453.934 1017.95 453.792C1017.36 453.688 1016.85 453.531 1016.41 453.323 1015.53 452.906 1014.86 452.326 1014.41 451.582 1013.95 450.838 1013.66 449.983 1013.53 449.016 1013.39 448.049 1013.33 447 1013.33 445.869L1013.33 438.773C1013.33 437.404 1013.31 435.968 1013.26 434.465 1013.22 432.963 1013.15 431.542 1013.04 430.203 1012.94 428.864 1012.82 427.689 1012.67 426.677 1012.52 425.665 1012.35 424.966 1012.14 424.579 1012.38 424.371 1012.62 424.111 1012.89 423.798 1013.15 423.486 1013.41 423.181 1013.66 422.883 1013.91 422.586 1014.13 422.31 1014.32 422.057 1014.51 421.804 1014.65 421.633 1014.74 421.544 1014.82 421.455 1014.93 421.41 1015.04 421.41ZM1049.69 420.83 1049.87 420.83C1049.9 420.979 1050.01 421.314 1050.2 421.834 1050.39 422.355 1050.62 422.943 1050.9 423.597 1051.18 424.252 1051.49 424.899 1051.83 425.539 1052.16 426.179 1052.51 426.692 1052.86 427.079L1052.73 427.346C1052.35 427.346 1052.03 427.346 1051.78 427.346 1051.53 427.346 1051.29 427.317 1051.06 427.257 1051.23 428.596 1051.35 429.794 1051.41 430.85 1051.47 431.906 1051.5 433 1051.5 434.131 1051.5 435.916 1051.3 437.567 1050.9 439.085 1050.51 440.603 1049.94 442.031 1049.21 443.37 1050.41 445.393 1051.01 446.792 1051.01 447.565 1051.01 448.19 1050.92 448.823 1050.73 449.462 1050.54 450.102 1050.26 450.705 1049.91 451.27 1049.56 451.835 1049.15 452.319 1048.68 452.721 1048.21 453.122 1047.7 453.397 1047.14 453.546 1046.44 453.725 1045.75 453.836 1045.07 453.881 1044.4 453.926 1043.5 453.948 1042.39 453.948 1042.15 453.948 1041.71 453.933 1041.07 453.903 1040.42 453.874 1039.69 453.829 1038.87 453.769L1038.69 450.109C1038.93 450.139 1039.16 450.154 1039.4 450.154 1039.63 450.154 1039.85 450.154 1040.06 450.154 1040.44 450.154 1040.91 449.998 1041.46 449.685 1042.02 449.373 1042.62 448.942 1043.25 448.391 1043.88 447.841 1044.52 447.164 1045.16 446.36 1045.81 445.557 1046.39 444.664 1046.92 443.682 1045.86 442.343 1044.38 440.662 1042.45 438.639 1040.53 436.615 1037.99 434.146 1034.82 431.23L1034.34 432.301 1034.2 432.345C1034 431.929 1033.8 431.542 1033.61 431.185 1033.42 430.828 1033.25 430.486 1033.1 430.158 1032.81 429.593 1032.55 429.072 1032.33 428.596 1032.11 428.12 1032 427.823 1032 427.703 1032 427.644 1032.07 427.465 1032.2 427.168 1032.33 426.87 1032.49 426.558 1032.66 426.231L1033.32 424.981 1033.59 424.981C1037.14 428.581 1040.08 431.735 1042.41 434.443 1044.74 437.151 1046.58 439.487 1047.93 441.451 1048.23 440.677 1048.45 439.866 1048.61 439.018 1048.78 438.17 1048.86 437.3 1048.86 436.407 1048.86 435.395 1048.81 434.436 1048.72 433.528 1048.64 432.621 1048.53 431.698 1048.39 430.761 1048.26 429.824 1048.11 428.849 1047.93 427.837 1047.76 426.826 1047.58 425.71 1047.4 424.49 1047.38 424.46 1047.36 424.222 1047.36 423.776 1047.36 423.568 1047.39 423.352 1047.45 423.129 1047.51 422.905 1047.64 422.705 1047.84 422.526ZM942.482 419.312C942.57 420.086 942.732 420.718 942.966 421.209 943.201 421.7 943.494 422.124 943.846 422.481 944.198 422.838 944.616 423.136 945.1 423.374 945.584 423.612 946.12 423.85 946.707 424.088L945.122 427.748C945.21 430.129 945.284 432.145 945.342 433.796 945.401 435.447 945.453 436.824 945.496 437.925 945.541 439.025 945.57 439.888 945.584 440.513 945.599 441.138 945.614 441.607 945.628 441.919 945.643 442.232 945.651 442.44 945.651 442.544 945.651 442.648 945.651 442.715 945.651 442.745 945.651 444.054 945.423 445.378 944.968 446.717 944.514 448.056 943.876 449.261 943.054 450.333 942.233 451.404 941.243 452.274 940.084 452.944 939.505 453.278 938.898 453.53 938.264 453.697L937.569 453.785 937.391 453.859C937.146 453.918 936.869 453.948 936.561 453.948L936.44 453.928 936.278 453.948C936.131 453.948 935.992 453.914 935.86 453.848L935.832 453.825 935.373 453.747C934.962 453.613 934.537 453.412 934.097 453.145 933.217 452.609 932.366 451.582 931.544 450.065 931.427 450.511 931.244 450.98 930.994 451.471 930.745 451.962 930.459 452.423 930.136 452.854 929.814 453.286 929.462 453.635 929.08 453.903 928.699 454.171 928.318 454.305 927.936 454.305 926.616 454.305 925.355 454 924.152 453.39 922.949 452.78 921.732 451.716 920.5 450.199 920.031 451.3 919.349 452.2 918.454 452.899 917.559 453.598 916.54 453.948 915.396 453.948L915.223 453.906 914.836 453.948C912.108 453.948 910.26 452.817 909.292 450.556 909.057 450.883 908.786 451.248 908.478 451.649 908.17 452.051 907.818 452.423 907.422 452.765 907.026 453.107 906.571 453.39 906.058 453.613 905.545 453.836 904.936 453.948 904.232 453.948 903.88 453.948 903.506 453.903 903.11 453.814 902.714 453.725 902.325 453.554 901.944 453.301 901.562 453.048 901.218 452.706 900.91 452.274 900.602 451.843 900.374 451.27 900.228 450.556 899.26 451.597 898.284 452.423 897.302 453.033 896.319 453.643 895.153 453.948 893.803 453.948 892.865 453.948 891.97 453.71 891.119 453.234 890.269 452.758 889.682 451.865 889.359 450.556 889.095 450.913 888.787 451.285 888.435 451.672 888.083 452.058 887.621 452.423 887.049 452.765 886.477 453.107 885.773 453.39 884.937 453.613 884.101 453.836 883.067 453.948 881.835 453.948L881.725 453.922 881.479 453.948C880.805 453.948 880.166 453.903 879.565 453.814 878.964 453.725 878.421 453.554 877.937 453.301 877.453 453.048 877.035 452.706 876.683 452.274 876.331 451.843 876.082 451.27 875.935 450.556 875.671 450.913 875.363 451.285 875.011 451.672 874.659 452.058 874.197 452.423 873.625 452.765 873.053 453.107 872.349 453.39 871.513 453.613 870.677 453.836 869.643 453.948 868.411 453.948L868.146 453.884 867.556 453.948C865.092 453.948 863.009 453.702 861.308 453.212 859.606 452.721 858.022 451.984 856.555 451.002 855.793 451.448 855.045 451.858 854.311 452.23 853.578 452.601 852.786 452.914 851.935 453.167 851.084 453.42 850.124 453.613 849.053 453.747L845.853 453.918 845.574 453.948 845.506 453.936 845.291 453.948C845.144 453.948 845.005 453.914 844.873 453.848L844.845 453.825 844.386 453.747C843.975 453.613 843.549 453.412 843.109 453.145 842.229 452.609 841.379 451.582 840.557 450.065 840.44 450.511 840.257 450.98 840.007 451.471 839.758 451.962 839.472 452.423 839.149 452.854 838.827 453.286 838.475 453.635 838.093 453.903 837.712 454.171 837.331 454.305 836.949 454.305 835.629 454.305 834.368 454 833.165 453.39 831.962 452.78 830.745 451.716 829.513 450.199 829.044 451.3 828.361 452.2 827.467 452.899 827.019 453.249 826.541 453.511 826.031 453.686L825.332 453.799 825.188 453.859 824.511 453.931 824.409 453.948 824.393 453.944 824.357 453.948C823.037 453.948 821.878 453.621 820.881 452.966 819.884 452.311 819.136 451.567 818.637 450.734 818.344 451.776 817.926 452.892 817.383 454.082 816.84 455.272 816.099 456.38 815.161 457.407 814.222 458.434 813.056 459.289 811.663 459.973 810.269 460.658 808.575 461 806.58 461 803.911 461 801.813 460.271 800.288 458.813 798.763 457.355 798 455.227 798 452.43 798 451.835 798.06 451.173 798.181 450.444 798.301 449.715 798.452 449.001 798.633 448.302 798.814 447.603 799.017 446.955 799.243 446.36 799.469 445.765 799.7 445.289 799.936 444.932 799.995 444.872 800.039 444.843 800.068 444.843 800.127 444.843 800.185 444.872 800.244 444.932 800.303 444.992 800.347 445.036 800.376 445.066 800.317 445.155 800.251 445.378 800.178 445.735 800.105 446.092 800.031 446.502 799.958 446.963 799.885 447.424 799.819 447.915 799.76 448.436 799.701 448.956 799.672 449.44 799.672 449.886 799.672 450.6 799.789 451.374 800.023 452.207 800.257 453.04 800.652 453.799 801.208 454.484 801.764 455.168 802.496 455.741 803.403 456.202 804.31 456.663 805.422 456.894 806.739 456.894 808.699 456.894 810.345 456.604 811.676 456.023 813.008 455.443 814.076 454.781 814.881 454.037 815.685 453.293 816.256 452.557 816.592 451.828 816.929 451.099 817.097 450.571 817.097 450.243 817.097 449.589 817.068 448.577 817.009 447.208 816.95 445.84 816.877 444.3 816.789 442.589 816.701 440.878 816.598 439.092 816.481 437.233 816.364 435.373 816.246 433.617 816.129 431.966 816.011 430.315 815.894 428.857 815.777 427.592 815.659 426.327 815.557 425.442 815.469 424.936L815.469 424.802C815.469 424.624 815.615 424.356 815.909 423.999 816.202 423.642 816.539 423.3 816.921 422.972 817.126 422.764 817.354 422.563 817.603 422.37 817.852 422.176 818.124 421.961 818.417 421.723L818.945 421.946C818.916 422.898 818.901 423.85 818.901 424.802 818.901 425.754 818.901 426.707 818.901 427.659 818.901 430.367 818.938 433.104 819.011 435.871 819.084 438.639 819.194 441.51 819.341 444.486 819.37 445.289 819.539 446.04 819.847 446.74 820.155 447.439 820.566 448.041 821.079 448.547 821.592 449.053 822.201 449.455 822.905 449.752 823.609 450.05 824.386 450.199 825.237 450.199L825.258 450.203 825.289 450.199C826.022 450.199 826.653 450.042 827.181 449.73 827.709 449.418 828.149 449.023 828.501 448.547 828.853 448.071 829.146 447.55 829.381 446.985 829.615 446.42 829.821 445.869 829.997 445.334 830.613 443.608 831.376 442.284 832.285 441.361 833.194 440.439 834.118 439.978 835.057 439.978 835.732 439.978 836.355 440.126 836.927 440.424 837.499 440.722 838.035 441.116 838.533 441.607 839.032 442.098 839.487 442.656 839.897 443.281 840.308 443.905 840.689 444.545 841.041 445.2 841.54 446.211 842.002 447.037 842.427 447.677 842.853 448.317 843.271 448.823 843.681 449.194 844.092 449.566 844.525 449.827 844.979 449.976L846.428 450.195 849.075 450.154C849.896 450.124 850.622 450.08 851.253 450.02 851.884 449.961 852.463 449.879 852.991 449.775 853.519 449.671 854.033 449.544 854.531 449.395 853.827 448.741 853.197 448.019 852.639 447.231 852.082 446.442 851.561 445.691 851.077 444.977 850.593 444.263 850.109 443.638 849.625 443.102 849.141 442.566 848.606 442.209 848.019 442.031L849.251 439.264C849.75 439.174 850.373 439.025 851.121 438.817 851.869 438.609 852.661 438.393 853.497 438.17 854.333 437.947 855.177 437.753 856.027 437.59 856.878 437.426 857.67 437.344 858.404 437.344 859.577 437.344 860.545 437.463 861.308 437.701 862.07 437.939 862.672 438.252 863.112 438.639 863.552 439.025 863.86 439.464 864.036 439.955 864.212 440.446 864.3 440.96 864.3 441.495 864.3 442.745 863.874 443.958 863.024 445.133 862.173 446.308 861 447.521 859.504 448.77 860.618 449.276 861.858 449.641 863.222 449.864 864.586 450.087 866.324 450.199 868.436 450.199L868.785 450.265 869.291 450.199C870.405 450.199 871.344 450.095 872.107 449.886 872.87 449.678 873.493 449.41 873.977 449.083 874.461 448.756 874.835 448.413 875.099 448.056 875.363 447.699 875.554 447.357 875.671 447.03 875.964 446.197 876.272 445.527 876.595 445.021 876.918 444.515 877.182 444.188 877.387 444.039 877.416 444.01 877.46 443.995 877.519 443.995 877.578 443.995 877.636 444.017 877.695 444.062 877.754 444.106 877.798 444.143 877.827 444.173 877.68 444.411 877.548 444.798 877.431 445.334 877.314 445.869 877.255 446.375 877.255 446.851 877.255 448.101 877.644 448.971 878.421 449.462 879.198 449.953 880.511 450.199 882.359 450.199L882.505 450.227 882.715 450.199C883.83 450.199 884.768 450.095 885.531 449.886 886.294 449.678 886.917 449.41 887.401 449.083 887.885 448.756 888.259 448.413 888.523 448.056 888.787 447.699 888.978 447.357 889.095 447.03 889.389 446.197 889.697 445.527 890.019 445.021 890.342 444.515 890.606 444.188 890.811 444.039 890.841 444.01 890.885 443.995 890.943 443.995 891.002 443.995 891.061 444.017 891.119 444.062 891.178 444.106 891.222 444.143 891.251 444.173 891.105 444.411 890.973 444.798 890.855 445.334 890.738 445.869 890.679 446.375 890.679 446.851 890.679 448.101 891.046 448.971 891.779 449.462 892.513 449.953 893.466 450.199 894.64 450.199 895.461 450.199 896.18 450.095 896.796 449.886 897.412 449.678 897.932 449.41 898.358 449.083 898.783 448.756 899.128 448.413 899.392 448.056 899.656 447.699 899.846 447.357 899.964 447.03 900.257 446.197 900.565 445.527 900.888 445.021 901.21 444.515 901.474 444.188 901.68 444.039 901.709 444.01 901.753 443.995 901.812 443.995 901.87 443.995 901.929 444.017 901.988 444.062 902.047 444.106 902.091 444.143 902.12 444.173 901.973 444.411 901.841 444.798 901.724 445.334 901.607 445.869 901.548 446.375 901.548 446.851 901.548 447.833 901.805 448.637 902.318 449.261 902.831 449.886 903.719 450.199 904.98 450.199 905.743 450.199 906.403 449.983 906.96 449.552 907.517 449.12 907.943 448.651 908.236 448.146 908.148 447.789 908.089 447.439 908.06 447.097 908.031 446.755 908.016 446.42 908.016 446.092 908.016 445.497 908.053 444.962 908.126 444.486 908.199 444.01 908.295 443.652 908.412 443.414 908.441 443.325 908.515 443.281 908.632 443.281 908.749 443.281 908.808 443.31 908.808 443.37 908.896 444.173 909.028 444.984 909.204 445.802 909.38 446.621 909.71 447.357 910.194 448.012 910.678 448.666 911.353 449.194 912.218 449.596 913.084 449.998 914.25 450.199 915.716 450.199L915.945 450.242 916.276 450.199C917.009 450.199 917.64 450.042 918.168 449.73 918.696 449.418 919.136 449.023 919.488 448.547 919.84 448.071 920.133 447.55 920.368 446.985 920.603 446.42 920.808 445.869 920.984 445.334 921.6 443.608 922.363 442.284 923.272 441.361 924.182 440.439 925.106 439.978 926.044 439.978 926.719 439.978 927.342 440.126 927.914 440.424 928.486 440.722 929.022 441.116 929.52 441.607 930.019 442.098 930.474 442.656 930.884 443.281 931.295 443.905 931.677 444.545 932.028 445.2 932.527 446.211 932.989 447.037 933.415 447.677 933.84 448.317 934.258 448.823 934.669 449.194 935.079 449.566 935.512 449.827 935.967 449.976L937.347 450.185 940.128 449.976C940.906 449.827 941.514 449.566 941.954 449.194 942.394 448.823 942.695 448.309 942.856 447.655 943.018 447 943.098 446.167 943.098 445.155 943.098 444.292 943.069 443.243 943.01 442.009 942.952 440.774 942.878 439.472 942.79 438.103 942.702 436.734 942.614 435.366 942.526 433.997 942.438 432.628 942.343 431.371 942.24 430.225 942.138 429.08 942.05 428.113 941.976 427.324 941.903 426.536 941.852 426.052 941.822 425.874 941.529 425.576 941.294 425.249 941.118 424.892 940.942 424.535 940.854 424.118 940.854 423.642 940.854 423.077 941.001 422.355 941.294 421.477 941.588 420.599 941.984 419.878 942.482 419.312ZM1058.78 419C1058.86 419.774 1059.03 420.406 1059.26 420.897 1059.49 421.388 1059.79 421.812 1060.14 422.169 1060.49 422.526 1060.91 422.824 1061.39 423.062 1061.88 423.3 1062.41 423.538 1063 423.776L1061.42 427.168C1061.5 428.537 1061.59 430.032 1061.68 431.654 1061.77 433.275 1061.85 434.934 1061.92 436.63 1062 438.326 1062.05 440.015 1062.1 441.696 1062.14 443.377 1062.16 444.932 1062.16 446.36 1062.16 447.193 1062.13 447.93 1062.05 448.57 1061.98 449.209 1061.85 449.834 1061.66 450.444 1061.47 451.054 1061.2 451.687 1060.84 452.341 1060.49 452.996 1060.05 453.725 1059.52 454.528L1059.35 454.528 1059.13 454.35C1059.27 453.576 1059.37 452.356 1059.41 450.69 1059.46 449.023 1059.48 447.03 1059.48 444.709 1059.48 443.281 1059.44 441.696 1059.37 439.955 1059.3 438.215 1059.21 436.481 1059.11 434.756 1059 433.03 1058.89 431.378 1058.75 429.801 1058.62 428.224 1058.5 426.87 1058.38 425.74 1058.09 425.442 1057.81 425.085 1057.54 424.668 1057.28 424.252 1057.15 423.806 1057.15 423.329 1057.15 422.764 1057.29 422.043 1057.59 421.165 1057.88 420.287 1058.28 419.565 1058.78 419ZM952.873 419C952.961 419.774 953.122 420.406 953.357 420.897 953.591 421.388 953.885 421.812 954.237 422.169 954.589 422.526 955.007 422.824 955.491 423.062 955.975 423.3 956.51 423.538 957.097 423.776L955.513 427.168C955.601 428.537 955.689 430.032 955.777 431.654 955.865 433.275 955.946 434.934 956.019 436.63 956.092 438.326 956.151 440.015 956.195 441.696 956.239 443.377 956.261 444.932 956.261 446.36 956.261 447.193 956.224 447.93 956.151 448.57 956.078 449.209 955.946 449.834 955.755 450.444 955.564 451.054 955.293 451.687 954.941 452.341 954.589 452.996 954.149 453.725 953.621 454.528L953.445 454.528 953.225 454.35C953.371 453.576 953.467 452.356 953.511 450.69 953.555 449.023 953.577 447.03 953.577 444.709 953.577 443.281 953.54 441.696 953.467 439.955 953.393 438.215 953.305 436.481 953.203 434.756 953.1 433.03 952.983 431.378 952.851 429.801 952.719 428.224 952.594 426.87 952.477 425.74 952.183 425.442 951.905 425.085 951.641 424.668 951.377 424.252 951.245 423.806 951.245 423.329 951.245 422.764 951.391 422.043 951.685 421.165 951.978 420.287 952.374 419.565 952.873 419Z" fill="#F1C8B9" fill-rule="evenodd"/></g></svg>