<svg width="504" height="372" xmlns="http://www.w3.org/2000/svg" xmlns:xlink="http://www.w3.org/1999/xlink" overflow="hidden"><defs><clipPath id="clip0"><rect x="388" y="172" width="504" height="372"/></clipPath><clipPath id="clip1"><rect x="399" y="172" width="483" height="245"/></clipPath><clipPath id="clip2"><rect x="399" y="172" width="483" height="245"/></clipPath><clipPath id="clip3"><rect x="399" y="172" width="483" height="245"/></clipPath></defs><g clip-path="url(#clip0)" transform="translate(-388 -172)"><g clip-path="url(#clip1)"><g clip-path="url(#clip2)"><g clip-path="url(#clip3)"><path d="M13.9681 372.82 486.679 372.82C489.144 372.82 491.141 370.823 491.141 368.358L491.141 368.358C491.141 365.893 489.144 363.895 486.679 363.895L13.9681 363.895C11.5032 363.895 9.50562 365.893 9.50562 368.358L9.50562 368.358C9.50729 370.823 11.5049 372.82 13.9681 372.82Z" fill="#413332" transform="matrix(1.00072 0 0 1 389.489 44.1681)"/><path d="M142.067 185.658C126.385 185.658 113.664 198.378 113.664 214.062 113.664 227.704 123.244 239.089 136.027 241.859 139.55 242.624 142.067 245.738 142.067 249.342L142.067 317.205C142.067 321.434 145.496 324.863 149.725 324.863L162.85 324.863C167.079 324.863 170.509 321.434 170.509 317.205L170.509 214.06C170.507 198.378 157.749 185.658 142.067 185.658L142.067 185.658Z" fill="#413332" transform="matrix(1.00072 0 0 1 389.489 44.1681)"/><path d="M323.078 185.658C338.798 185.658 351.518 198.378 351.518 214.062 351.518 227.708 341.932 239.094 329.119 241.861 325.594 242.622 323.076 245.738 323.076 249.346L323.076 317.207C323.076 321.435 319.646 324.865 315.418 324.865L302.331 324.865C298.102 324.865 294.673 321.435 294.673 317.207L294.673 214.06C294.674 198.378 307.396 185.658 323.078 185.658L323.078 185.658Z" fill="#413332" transform="matrix(1.00072 0 0 1 389.489 44.1681)"/><path d="M153.577 329.988 158.4 329.988C160.339 329.988 161.807 331.739 161.47 333.648L157.519 356.08C157.257 357.57 155.962 358.657 154.448 358.657L153.577 358.657C151.855 358.657 150.458 357.26 150.458 355.538L150.458 333.106C150.458 331.385 151.855 329.988 153.577 329.988Z" fill="#413332" transform="matrix(1.00072 0 0 1 389.489 44.1681)"/><path d="M311.568 329.988 306.778 329.988C304.841 329.988 303.372 331.735 303.706 333.643L307.628 356.075C307.888 357.567 309.185 358.657 310.7 358.657L311.568 358.657C313.29 358.657 314.687 357.26 314.687 355.538L314.687 333.106C314.685 331.385 313.29 329.988 311.568 329.988Z" fill="#413332" transform="matrix(1.00072 0 0 1 389.489 44.1681)"/><path d="M184.56 267.259 280.583 267.259C284.569 267.259 287.8 270.491 287.8 274.476L287.8 286.999C287.8 290.986 284.568 294.217 280.583 294.217L184.56 294.217C180.573 294.217 177.343 290.984 177.343 286.999L177.343 274.476C177.343 270.491 180.573 267.259 184.56 267.259Z" fill="#413332" transform="matrix(1.00072 0 0 1 389.489 44.1681)"/><path d="M184.56 261.146 280.583 261.146C284.569 261.146 287.8 257.913 287.8 253.928L287.8 171.081C287.8 167.094 284.568 163.863 280.583 163.863L184.56 163.863C180.573 163.863 177.343 167.096 177.343 171.081L177.343 253.928C177.343 257.913 180.573 261.146 184.56 261.146Z" fill="#413332" transform="matrix(1.00072 0 0 1 389.489 44.1681)"/><path d="M184.56 324.862 280.583 324.862C284.569 324.862 287.8 321.629 287.8 317.644L287.8 305.121C287.8 301.134 284.568 297.903 280.583 297.903L184.56 297.903C180.573 297.903 177.343 301.136 177.343 305.121L177.343 317.644C177.343 321.631 180.573 324.862 184.56 324.862Z" fill="#413332" transform="matrix(1.00072 0 0 1 389.489 44.1681)"/><path d="M66.9966 358.657 52.9084 358.657C52.9084 358.657 36.8843 342.291 36.8843 315.256 36.8843 288.219 58.2253 273.715 58.2253 253.932 58.2253 244.414 55.5034 237.979 52.6714 233.859 50.8657 231.231 52.7515 227.654 55.9406 227.654L66.9949 227.654 78.0309 227.654C81.2183 227.654 83.1058 231.226 81.3034 233.854 78.4814 237.973 75.7646 244.409 75.7646 253.932 75.7646 273.715 97.0671 288.219 97.0671 315.256 97.0671 342.292 81.0815 358.657 81.0815 358.657L66.9966 358.657Z" fill="#413332" transform="matrix(1.00072 0 0 1 389.489 44.1681)"/><path d="M67.3754 223.06 76.9061 223.06C76.9061 223.06 71.172 186.114 92.5129 152.584 92.5129 152.584 64.7187 184.974 67.3754 223.06L67.3754 223.06Z" fill="#413332" transform="matrix(1.00072 0 0 1 389.489 44.1681)"/><path d="M63.9593 223.06 56.7734 223.06C56.5715 223.06 56.4062 222.905 56.3946 222.705 56.2127 219.577 54.659 196.619 47.5565 184.216 47.5565 184.216 64.3398 198.305 64.3398 222.681L64.3398 222.681C64.3382 222.89 64.1679 223.06 63.9593 223.06Z" fill="#413332" transform="matrix(1.00072 0 0 1 389.489 44.1681)"/><path d="M64.5668 205.973C64.5668 205.973 56.7066 179.659 41.8591 164.014 41.8591 164.014 57.7129 171.407 67.1551 192.022 67.4405 192.644 67.4872 193.35 67.2803 194.002 66.6895 195.871 65.4162 200.277 64.5668 205.973L64.5668 205.973Z" fill="#413332" transform="matrix(1.00072 0 0 1 389.489 44.1681)"/><path d="M68.5152 186.493C68.5152 186.493 65.0975 147.648 71.933 127.827 71.933 127.827 62.1353 145.647 60.9271 172.823 60.8954 173.523 61.0956 174.21 61.4995 174.781 62.9747 176.854 66.7096 182.281 68.5152 186.493L68.5152 186.493Z" fill="#413332" transform="matrix(1.00072 0 0 1 389.489 44.1681)"/><path d="M355.309 268.729 462.55 268.729C464.644 268.729 466.341 267.032 466.341 264.937L466.341 264.937C466.341 262.843 464.644 261.146 462.55 261.146L355.309 261.146C353.215 261.146 351.518 262.843 351.518 264.937L351.518 264.937C351.518 267.032 353.215 268.729 355.309 268.729Z" fill="#413332" transform="matrix(1.00072 0 0 1 389.489 44.1681)"/><path d="M457.042 355.813 457.042 276.189C457.042 274.618 455.769 273.345 454.199 273.345L449.943 273.345C448.373 273.345 447.1 274.618 447.1 276.189L447.1 355.813C447.1 357.384 448.373 358.657 449.943 358.657L454.199 358.657C455.769 358.657 457.042 357.384 457.042 355.813Z" fill="#413332" transform="matrix(1.00072 0 0 1 389.489 44.1681)"/><path d="M370.763 355.813 370.763 276.189C370.763 274.618 369.489 273.345 367.919 273.345L363.663 273.345C362.093 273.345 360.82 274.618 360.82 276.189L360.82 355.813C360.82 357.384 362.093 358.657 363.663 358.657L367.919 358.657C369.489 358.657 370.763 357.384 370.763 355.813Z" fill="#413332" transform="matrix(1.00072 0 0 1 389.489 44.1681)"/><path d="M374.269 277.631 374.269 298.639C374.269 301.007 376.188 302.927 378.556 302.927L439.306 302.927C441.674 302.927 443.593 301.007 443.593 298.639L443.593 277.631C443.593 275.262 441.674 273.343 439.306 273.343L378.556 273.343C376.188 273.343 374.269 275.262 374.269 277.631ZM408.586 291.929C406.594 291.749 405.059 289.99 405.142 287.991 405.227 285.956 406.909 284.361 408.93 284.361 411.005 284.361 412.722 286.041 412.722 288.152 412.722 290.34 410.813 292.131 408.586 291.929Z" fill="#413332" transform="matrix(1.00072 0 0 1 389.489 44.1681)"/></g></g></g><path d="M631.982 536.942 632.11 536.942C632.323 537.048 632.617 537.271 632.991 537.612 633.365 537.952 633.669 538.281 633.904 538.6L633.904 538.727C633.776 538.834 633.632 538.967 633.472 539.126 633.311 539.285 633.146 539.45 632.975 539.62 632.804 539.79 632.644 539.955 632.494 540.114 632.345 540.274 632.227 540.396 632.142 540.481L632.014 540.481C631.822 540.226 631.565 539.939 631.245 539.62 630.924 539.301 630.593 539.057 630.252 538.887L630.252 538.759C630.252 538.738 630.337 538.627 630.508 538.425 630.679 538.223 630.871 538.015 631.085 537.803 631.298 537.59 631.496 537.394 631.677 537.213 631.859 537.032 631.96 536.942 631.982 536.942ZM628.041 536.942 628.169 536.942C628.383 537.048 628.676 537.271 629.05 537.612 629.424 537.952 629.728 538.281 629.963 538.6L629.963 538.727C629.835 538.834 629.691 538.967 629.531 539.126 629.37 539.285 629.205 539.45 629.034 539.62 628.863 539.79 628.703 539.955 628.553 540.114 628.404 540.274 628.286 540.396 628.201 540.481L628.073 540.481C627.881 540.226 627.624 539.939 627.304 539.62 626.983 539.301 626.652 539.057 626.311 538.887L626.311 538.759C626.311 538.738 626.396 538.627 626.567 538.425 626.738 538.223 626.93 538.015 627.144 537.803 627.357 537.59 627.555 537.394 627.736 537.213 627.918 537.032 628.019 536.942 628.041 536.942ZM744.885 530.597 745.013 530.597C745.227 530.703 745.521 530.927 745.895 531.267 746.268 531.607 746.573 531.936 746.808 532.255L746.808 532.383C746.68 532.489 746.535 532.622 746.375 532.781 746.215 532.94 746.049 533.105 745.879 533.275 745.708 533.445 745.547 533.61 745.398 533.77 745.248 533.929 745.131 534.051 745.045 534.136L744.917 534.136C744.725 533.881 744.469 533.594 744.148 533.275 743.828 532.957 743.497 532.712 743.155 532.542L743.155 532.414C743.155 532.393 743.241 532.282 743.411 532.08 743.582 531.878 743.775 531.67 743.988 531.458 744.202 531.245 744.399 531.049 744.581 530.868 744.763 530.687 744.864 530.597 744.885 530.597ZM738.693 530.597 738.822 530.597C739.035 530.703 739.329 530.927 739.703 531.267 740.076 531.607 740.381 531.936 740.616 532.255L740.616 532.383C740.488 532.489 740.344 532.622 740.183 532.781 740.023 532.94 739.858 533.105 739.687 533.275 739.516 533.445 739.356 533.61 739.206 533.77 739.057 533.929 738.939 534.051 738.854 534.136L738.725 534.136C738.533 533.881 738.277 533.594 737.956 533.275 737.636 532.957 737.305 532.712 736.963 532.542L736.963 532.414C736.963 532.393 737.049 532.282 737.22 532.08 737.39 531.878 737.583 531.67 737.796 531.458 738.01 531.245 738.208 531.049 738.389 530.868 738.571 530.687 738.672 530.597 738.693 530.597ZM734.752 530.597 734.881 530.597C735.094 530.703 735.388 530.927 735.762 531.267 736.135 531.607 736.44 531.936 736.675 532.255L736.675 532.383C736.547 532.489 736.402 532.622 736.242 532.781 736.082 532.94 735.917 533.105 735.746 533.275 735.575 533.445 735.415 533.61 735.265 533.77 735.115 533.929 734.998 534.051 734.913 534.136L734.784 534.136C734.592 533.881 734.336 533.594 734.016 533.275 733.695 532.957 733.364 532.712 733.022 532.542L733.022 532.414C733.022 532.393 733.108 532.282 733.279 532.08 733.449 531.878 733.642 531.67 733.855 531.458 734.069 531.245 734.266 531.049 734.448 530.868 734.63 530.687 734.731 530.597 734.752 530.597ZM597.955 528.62C598.19 528.62 598.424 528.673 598.659 528.78 598.894 528.886 599.012 529.077 599.012 529.354 599.012 529.694 598.916 530.002 598.724 530.278 598.424 530.023 597.976 529.896 597.378 529.896 597.186 529.896 596.988 529.922 596.785 529.975 596.582 530.029 596.395 530.114 596.224 530.23 596.053 530.347 595.909 530.501 595.792 530.693 595.674 530.884 595.616 531.107 595.616 531.362 595.616 531.787 595.776 532.09 596.096 532.271 596.417 532.452 596.79 532.542 597.218 532.542 597.709 532.542 598.125 532.489 598.467 532.383 598.809 532.276 599.161 532.138 599.525 531.968L599.621 532 599.525 533.084C598.884 533.275 598.238 533.509 597.586 533.785 596.935 534.062 596.342 534.317 595.808 534.551L594.013 535.443C594.013 535.273 594.04 535.024 594.094 534.694 594.147 534.365 594.302 534.126 594.558 533.977L595.391 533.53C595.135 533.424 594.905 533.265 594.702 533.052 594.5 532.84 594.398 532.542 594.398 532.159 594.398 531.883 594.5 531.538 594.702 531.123 594.905 530.709 595.172 530.321 595.503 529.959 595.835 529.598 596.214 529.285 596.641 529.019 597.068 528.753 597.506 528.62 597.955 528.62ZM605.644 520.872C605.11 521.595 604.544 522.249 603.946 522.833 603.348 523.418 602.643 523.955 601.831 524.443 602.173 524.486 602.504 524.507 602.825 524.507 603.145 524.507 603.583 524.507 604.138 524.507 605.228 524.507 605.981 524.396 606.397 524.172 606.814 523.949 607.022 523.774 607.022 523.646 607.022 523.561 607.011 523.455 606.99 523.328 606.969 523.2 606.915 523.03 606.83 522.817 606.744 522.605 606.606 522.339 606.413 522.02 606.221 521.701 605.965 521.319 605.644 520.872ZM589.464 519.501C588.802 519.501 588.214 519.751 587.702 520.251 587.189 520.75 586.74 521.446 586.356 522.339 586.655 522.785 587.045 523.173 587.525 523.503 588.006 523.832 588.513 524.109 589.047 524.332 589.581 524.555 590.115 524.725 590.649 524.842 591.183 524.959 591.653 525.017 592.059 525.017 592.379 525.017 592.641 524.98 592.844 524.906 593.047 524.831 593.148 524.709 593.148 524.539 593.148 524.05 593.031 523.513 592.796 522.929 592.561 522.344 592.262 521.797 591.899 521.287 591.536 520.777 591.141 520.352 590.713 520.012 590.286 519.672 589.87 519.501 589.464 519.501ZM704.426 518.354C703.977 518.354 703.577 518.46 703.224 518.672 702.872 518.885 702.578 519.145 702.343 519.454 702.108 519.762 701.932 520.097 701.815 520.458 701.697 520.819 701.638 521.149 701.638 521.446 701.638 522.041 701.937 522.493 702.536 522.801 703.134 523.11 703.913 523.264 704.874 523.264 705.75 523.264 706.722 523.136 707.79 522.881 707.683 522.031 707.491 521.313 707.213 520.729 706.936 520.144 706.626 519.677 706.284 519.326 705.942 518.975 705.601 518.726 705.259 518.577 704.917 518.428 704.639 518.354 704.426 518.354ZM657.775 517.971C658.116 517.971 658.458 518.051 658.8 518.21 659.142 518.37 659.313 518.651 659.313 519.055 659.313 519.565 659.174 520.022 658.896 520.426 658.447 520.043 657.785 519.852 656.909 519.852 656.632 519.852 656.343 519.895 656.044 519.98 655.745 520.065 655.468 520.198 655.211 520.378 654.955 520.559 654.741 520.782 654.57 521.048 654.4 521.313 654.314 521.638 654.314 522.02 654.314 522.658 654.549 523.11 655.019 523.375 655.489 523.641 656.044 523.774 656.685 523.774 657.411 523.774 658.026 523.694 658.528 523.535 659.029 523.375 659.547 523.179 660.082 522.945L660.21 522.977 660.082 524.571C659.12 524.869 658.159 525.219 657.198 525.623 656.237 526.027 655.372 526.41 654.603 526.771L651.943 528.078C651.943 527.823 651.975 527.451 652.039 526.962 652.146 526.473 652.381 526.123 652.744 525.91L653.962 525.241C653.599 525.092 653.268 524.858 652.968 524.539 652.669 524.22 652.52 523.774 652.52 523.2 652.52 522.775 652.669 522.265 652.968 521.669 653.268 521.074 653.657 520.5 654.138 519.948 654.619 519.395 655.174 518.928 655.804 518.545 656.434 518.162 657.091 517.971 657.775 517.971ZM725.405 517.652C725.127 517.652 724.822 517.673 724.491 517.716 724.16 517.758 723.829 517.812 723.498 517.875 723.167 517.939 722.852 518.013 722.553 518.099 722.254 518.184 722.008 518.268 721.816 518.354 722.136 518.779 722.441 519.198 722.729 519.613 723.017 520.027 723.322 520.431 723.642 520.825 723.963 521.218 724.305 521.585 724.668 521.925 725.031 522.265 725.447 522.573 725.917 522.849 726.814 522.19 727.455 521.595 727.84 521.064 728.224 520.532 728.416 520.022 728.416 519.533 728.416 519.321 728.374 519.103 728.288 518.88 728.203 518.656 728.048 518.455 727.824 518.274 727.599 518.093 727.29 517.944 726.894 517.828 726.499 517.711 726.003 517.652 725.405 517.652ZM571.385 517.333 571.513 517.333C571.684 517.546 571.897 517.875 572.154 518.322 572.41 518.768 572.656 519.262 572.891 519.804 573.126 520.346 573.329 520.91 573.499 521.494 573.67 522.079 573.756 522.605 573.756 523.072 573.756 525.156 573.526 526.883 573.067 528.254 572.608 529.625 572.058 530.719 571.417 531.538 570.776 532.356 570.124 532.935 569.462 533.275 568.8 533.615 568.266 533.785 567.86 533.785 567.326 533.785 566.755 533.732 566.146 533.626 565.537 533.52 564.966 533.392 564.432 533.243 564.133 533.158 563.823 533.068 563.503 532.972 563.182 532.877 562.873 532.776 562.574 532.669L562.606 532.478C564.314 532.436 565.794 532.181 567.043 531.713 568.293 531.245 569.323 530.65 570.135 529.928 570.947 529.205 571.55 528.402 571.945 527.52 572.341 526.638 572.538 525.761 572.538 524.89 572.538 523.785 571.865 522.403 570.52 520.745 570.327 520.532 570.231 520.352 570.231 520.203 570.231 520.118 570.263 520.022 570.327 519.916ZM704.635 515.771C705.23 515.771 705.794 515.962 706.326 516.345 706.858 516.727 707.326 517.28 707.731 518.003 708.135 518.726 708.454 519.608 708.688 520.649 708.923 521.691 709.04 522.86 709.04 524.156 709.04 525.644 708.826 526.984 708.399 528.174 707.972 529.364 707.443 530.374 706.813 531.203 706.183 532.032 705.531 532.669 704.858 533.116 704.186 533.562 703.625 533.785 703.176 533.785 702.642 533.785 702.071 533.732 701.462 533.626 700.853 533.52 700.282 533.392 699.748 533.243 699.449 533.158 699.139 533.068 698.819 532.972 698.498 532.877 698.189 532.776 697.89 532.669L697.922 532.478C699.652 532.414 701.126 532.165 702.343 531.729 703.561 531.293 704.559 530.735 705.339 530.055 706.119 529.375 706.706 528.61 707.101 527.759 707.496 526.909 707.737 526.038 707.822 525.145 706.327 525.442 705.206 525.591 704.458 525.591 703.176 525.591 702.204 525.315 701.542 524.762 700.88 524.21 700.549 523.328 700.549 522.116 700.549 521.414 700.65 520.692 700.852 519.948 701.054 519.204 701.336 518.524 701.698 517.907 702.06 517.291 702.491 516.781 702.991 516.377 703.491 515.973 704.039 515.771 704.635 515.771ZM694.245 515.771 694.373 515.771C694.907 516.749 695.302 517.732 695.559 518.72 695.815 519.709 695.943 520.628 695.943 521.478 695.943 521.946 695.879 522.403 695.751 522.849 695.623 523.296 695.462 523.71 695.27 524.093 695.078 524.475 694.87 524.815 694.645 525.113 694.421 525.411 694.213 525.644 694.021 525.814 693.572 526.24 693.107 526.564 692.627 526.787 692.146 527.01 691.628 527.122 691.073 527.122 690.817 527.122 690.544 527.09 690.256 527.026 689.968 526.962 689.684 526.84 689.407 526.659 689.129 526.479 688.878 526.234 688.654 525.926 688.43 525.618 688.264 525.209 688.157 524.698 687.538 525.379 686.849 525.953 686.091 526.42 685.332 526.888 684.462 527.122 683.479 527.122 682.988 527.122 682.502 527.058 682.021 526.93 681.541 526.803 681.092 526.585 680.676 526.277 680.259 525.969 679.907 525.559 679.618 525.049 679.33 524.539 679.143 523.912 679.058 523.168L674.7 524.571C674.871 524.826 675.042 525.241 675.213 525.814 675.384 526.388 675.469 526.973 675.469 527.568 675.469 529.417 675.239 530.974 674.78 532.239 674.321 533.504 673.771 534.529 673.13 535.316 672.489 536.102 671.838 536.671 671.176 537.022 670.513 537.372 669.979 537.548 669.574 537.548 669.04 537.548 668.468 537.495 667.859 537.388 667.251 537.282 666.679 537.155 666.145 537.006 665.846 536.921 665.536 536.83 665.216 536.735 664.896 536.639 664.586 536.538 664.287 536.432L664.319 536.241C666.028 536.198 667.507 535.943 668.756 535.475 670.006 535.008 671.037 534.413 671.848 533.69 672.66 532.967 673.264 532.165 673.659 531.283 674.054 530.4 674.251 529.524 674.251 528.652 674.251 527.866 674.054 527.169 673.659 526.564 673.264 525.958 672.553 525.368 671.528 524.794 672.19 523.051 672.617 522.158 672.81 522.116 673.173 522.031 673.579 521.951 674.027 521.877 674.476 521.802 674.956 521.712 675.469 521.606 676.153 521.457 676.729 521.324 677.199 521.207 677.669 521.09 678.064 520.973 678.385 520.857 678.705 520.74 678.967 520.623 679.17 520.506 679.373 520.389 679.56 520.245 679.73 520.075 679.944 519.884 680.115 519.682 680.243 519.469 680.371 519.257 680.499 519.087 680.628 518.959 680.67 518.917 680.713 518.896 680.756 518.896 680.798 518.896 680.841 518.912 680.884 518.943 680.927 518.975 680.959 519.002 680.98 519.023 680.873 519.193 680.777 519.469 680.692 519.852 680.606 520.235 680.564 520.596 680.564 520.936 680.564 521.383 680.622 521.818 680.74 522.243 680.857 522.669 681.055 523.041 681.332 523.359 681.61 523.678 681.973 523.939 682.422 524.141 682.87 524.342 683.436 524.443 684.12 524.443 684.675 524.443 685.172 524.369 685.61 524.22 686.048 524.071 686.427 523.885 686.747 523.662 687.068 523.439 687.329 523.195 687.532 522.929 687.735 522.663 687.88 522.413 687.965 522.18 688.2 521.585 688.43 521.106 688.654 520.745 688.878 520.384 689.065 520.15 689.215 520.043 689.236 520.022 689.268 520.012 689.311 520.012 689.353 520.012 689.396 520.027 689.439 520.059 689.482 520.091 689.514 520.118 689.535 520.139 689.428 520.309 689.332 520.585 689.247 520.968 689.161 521.351 689.118 521.712 689.118 522.052 689.118 522.754 689.305 523.328 689.679 523.774 690.053 524.22 690.699 524.443 691.618 524.443 692.728 524.443 693.508 524.273 693.956 523.933 694.405 523.593 694.629 523.147 694.629 522.594 694.629 522.275 694.539 521.845 694.357 521.303 694.175 520.761 693.743 520.065 693.059 519.214 692.931 519.066 692.867 518.885 692.867 518.672 692.867 518.481 692.91 518.311 692.995 518.162ZM556.71 515.771 556.838 515.771C557.372 516.749 557.767 517.732 558.024 518.72 558.28 519.709 558.408 520.628 558.408 521.478 558.408 521.925 558.312 522.376 558.12 522.833 557.928 523.29 557.698 523.71 557.431 524.093 557.164 524.475 556.886 524.815 556.598 525.113 556.31 525.411 556.059 525.634 555.845 525.783 555.268 526.229 554.489 526.606 553.506 526.914 552.523 527.223 551.439 527.472 550.254 527.664 549.068 527.855 547.824 527.993 546.521 528.078 545.218 528.163 543.958 528.206 542.74 528.206 540.967 528.206 539.462 528.052 538.223 527.743 536.984 527.435 535.98 527.005 535.211 526.452 534.442 525.899 533.881 525.241 533.529 524.475 533.176 523.71 533 522.87 533 521.957 533 521.128 533.091 520.362 533.272 519.661 533.454 518.959 533.651 518.502 533.865 518.29 533.908 518.247 533.951 518.226 533.993 518.226 534.057 518.226 534.121 518.258 534.185 518.322 534.164 518.492 534.143 518.699 534.121 518.943 534.1 519.188 534.089 519.363 534.089 519.469 534.089 521.404 534.928 522.849 536.605 523.806 538.281 524.762 540.957 525.241 544.631 525.241 548.689 525.241 551.781 524.996 553.907 524.507 556.032 524.018 557.095 523.381 557.095 522.594 557.095 522.275 557.004 521.845 556.822 521.303 556.641 520.761 556.208 520.065 555.525 519.214 555.396 519.066 555.332 518.885 555.332 518.672 555.332 518.481 555.375 518.311 555.461 518.162ZM726.109 515.261C726.964 515.261 727.679 515.341 728.256 515.5 728.833 515.659 729.292 515.877 729.634 516.154 729.976 516.43 730.216 516.749 730.355 517.11 730.494 517.471 730.563 517.843 730.563 518.226 730.563 518.991 730.264 519.826 729.666 520.729 729.068 521.632 728.192 522.53 727.039 523.423 727.85 523.785 728.747 524.045 729.73 524.204L732.768 524.422 734.624 524.22C735.18 524.071 735.634 523.88 735.986 523.646 736.338 523.413 736.611 523.168 736.803 522.913 736.995 522.658 737.134 522.413 737.22 522.18 737.433 521.585 737.657 521.106 737.892 520.745 738.127 520.384 738.32 520.15 738.469 520.043 738.49 520.022 738.523 520.012 738.565 520.012 738.608 520.012 738.651 520.027 738.693 520.059 738.736 520.091 738.768 520.118 738.79 520.139 738.683 520.309 738.587 520.585 738.501 520.968 738.416 521.351 738.373 521.712 738.373 522.052 738.373 522.945 738.656 523.567 739.222 523.917 739.505 524.093 739.886 524.224 740.364 524.312L741.849 524.425 743.419 524.316C743.937 524.231 744.362 524.103 744.693 523.933 745.355 523.593 745.686 523.147 745.686 522.594 745.686 522.275 745.595 521.845 745.414 521.303 745.232 520.761 744.8 520.065 744.116 519.214 743.988 519.066 743.924 518.885 743.924 518.672 743.924 518.481 743.967 518.311 744.052 518.162L745.302 515.771 745.43 515.771C745.964 516.749 746.359 517.732 746.615 518.72 746.872 519.709 747 520.628 747 521.478 747 521.946 746.936 522.403 746.808 522.849 746.68 523.296 746.519 523.71 746.327 524.093 746.135 524.475 745.927 524.815 745.702 525.113 745.478 525.411 745.27 525.644 745.078 525.814 744.629 526.24 744.084 526.564 743.443 526.787L742.101 526.967 741.449 527.122 741.115 527.099 740.944 527.122 740.863 527.081 740.055 527.026C739.617 526.962 739.222 526.84 738.87 526.659 738.517 526.479 738.213 526.234 737.956 525.926 737.7 525.618 737.519 525.209 737.412 524.698 737.22 524.954 736.995 525.219 736.739 525.496 736.483 525.772 736.146 526.032 735.73 526.277 735.313 526.521 734.8 526.723 734.192 526.883L732.814 527.028 732.421 527.122 732.118 527.102 731.933 527.122 731.86 527.085 730.327 526.986C728.3 526.715 726.478 526.038 724.86 524.954 724.134 525.442 723.45 525.974 722.809 526.548 722.168 527.122 721.602 527.743 721.111 528.413 720.62 529.083 720.23 529.805 719.942 530.581 719.653 531.357 719.509 532.181 719.509 533.052 719.509 534.157 719.728 535.162 720.166 536.065 720.604 536.969 721.277 537.744 722.184 538.393 723.092 539.041 724.256 539.541 725.677 539.891 727.097 540.242 728.79 540.417 730.755 540.417 733.404 540.417 735.369 540.247 736.651 539.907 736.694 539.95 736.715 540.013 736.715 540.099 736.715 540.247 736.651 540.364 736.523 540.449 736.373 540.534 736.079 540.672 735.641 540.864 735.204 541.055 734.728 541.257 734.216 541.469 733.703 541.682 733.212 541.889 732.742 542.091 732.272 542.293 731.93 542.437 731.717 542.522 731.439 542.628 731.017 542.734 730.451 542.841 729.885 542.947 729.153 543 728.256 543 726.611 543 725.111 542.814 723.754 542.442 722.398 542.07 721.239 541.528 720.278 540.816 719.317 540.104 718.569 539.232 718.035 538.201 717.501 537.17 717.234 535.996 717.234 534.678 717.234 533.488 717.416 532.388 717.779 531.378 718.142 530.369 718.633 529.439 719.253 528.588 719.872 527.738 720.582 526.957 721.383 526.245 722.184 525.533 723.023 524.869 723.899 524.252 723.365 523.848 722.863 523.338 722.393 522.722 721.923 522.105 721.48 521.505 721.063 520.92 720.646 520.336 720.246 519.82 719.861 519.374 719.477 518.928 719.093 518.672 718.708 518.609L719.605 516.632C720.075 516.547 720.593 516.425 721.159 516.265 721.725 516.106 722.297 515.952 722.873 515.803 723.45 515.654 724.016 515.527 724.571 515.42 725.127 515.314 725.64 515.261 726.109 515.261ZM547.643 511.594 547.771 511.594C547.984 511.7 548.278 511.924 548.652 512.264 549.026 512.604 549.33 512.933 549.565 513.252L549.565 513.38C549.437 513.486 549.293 513.619 549.133 513.778 548.972 513.938 548.807 514.102 548.636 514.272 548.465 514.442 548.305 514.607 548.155 514.767 548.006 514.926 547.888 515.048 547.803 515.133L547.675 515.133C547.482 514.878 547.226 514.591 546.906 514.272 546.585 513.954 546.254 513.709 545.912 513.539L545.912 513.412C545.912 513.39 545.998 513.279 546.169 513.077 546.34 512.875 546.532 512.668 546.745 512.455 546.959 512.242 547.157 512.046 547.338 511.865 547.52 511.684 547.621 511.594 547.643 511.594ZM543.702 511.594 543.83 511.594C544.043 511.7 544.337 511.924 544.711 512.264 545.085 512.604 545.389 512.933 545.624 513.252L545.624 513.38C545.496 513.486 545.352 513.619 545.191 513.778 545.031 513.938 544.866 514.102 544.695 514.272 544.524 514.442 544.364 514.607 544.214 514.767 544.065 514.926 543.947 515.048 543.862 515.133L543.734 515.133C543.541 514.878 543.285 514.591 542.965 514.272 542.644 513.954 542.313 513.709 541.971 513.539L541.971 513.412C541.971 513.39 542.057 513.279 542.228 513.077 542.399 512.875 542.591 512.668 542.805 512.455 543.018 512.242 543.216 512.046 543.397 511.865 543.579 511.684 543.68 511.594 543.702 511.594ZM635.731 509.458C635.346 509.458 635.004 509.564 634.705 509.777 634.406 509.989 634.15 510.25 633.936 510.558 633.723 510.866 633.557 511.201 633.44 511.562 633.322 511.924 633.263 512.253 633.263 512.551 633.263 512.87 633.402 513.162 633.68 513.428 633.958 513.693 634.326 513.916 634.785 514.097 635.245 514.278 635.773 514.416 636.371 514.512 636.969 514.607 637.589 514.655 638.23 514.655 638.678 514.655 639.148 514.623 639.639 514.559 639.533 513.964 639.372 513.364 639.159 512.758 638.945 512.152 638.678 511.605 638.358 511.116 638.037 510.627 637.658 510.228 637.22 509.92 636.783 509.612 636.286 509.458 635.731 509.458ZM689.503 508.438 689.631 508.438C689.845 508.544 690.138 508.767 690.512 509.107 690.886 509.447 691.19 509.777 691.425 510.096L691.425 510.223C691.297 510.329 691.153 510.462 690.993 510.622 690.833 510.781 690.667 510.946 690.496 511.116 690.325 511.286 690.165 511.451 690.016 511.61 689.866 511.77 689.749 511.892 689.663 511.977L689.535 511.977C689.343 511.722 689.086 511.435 688.766 511.116 688.446 510.797 688.114 510.553 687.773 510.383L687.773 510.255C687.773 510.234 687.858 510.122 688.029 509.92 688.2 509.718 688.392 509.511 688.606 509.299 688.819 509.086 689.017 508.889 689.199 508.709 689.38 508.528 689.482 508.438 689.503 508.438ZM685.562 508.438 685.69 508.438C685.904 508.544 686.197 508.767 686.571 509.107 686.945 509.447 687.249 509.777 687.484 510.096L687.484 510.223C687.356 510.329 687.212 510.462 687.052 510.622 686.892 510.781 686.726 510.946 686.555 511.116 686.384 511.286 686.224 511.451 686.075 511.61 685.925 511.77 685.808 511.892 685.722 511.977L685.594 511.977C685.402 511.722 685.145 511.435 684.825 511.116 684.505 510.797 684.173 510.553 683.832 510.383L683.832 510.255C683.832 510.234 683.917 510.122 684.088 509.92 684.259 509.718 684.451 509.511 684.665 509.299 684.878 509.086 685.076 508.889 685.257 508.709 685.439 508.528 685.541 508.438 685.562 508.438ZM636.5 506.875C637.034 506.875 637.573 507.045 638.118 507.385 638.662 507.726 639.148 508.23 639.575 508.9 640.003 509.57 640.35 510.393 640.617 511.371 640.884 512.349 641.017 513.486 641.017 514.783 641.017 515.59 640.959 516.361 640.841 517.094 640.724 517.828 640.505 518.471 640.184 519.023 639.949 519.384 639.634 519.778 639.239 520.203 638.844 520.628 638.433 521.021 638.005 521.383 638.561 521.574 639.105 521.797 639.639 522.052 640.174 522.307 640.649 522.599 641.065 522.929 641.482 523.258 641.813 523.62 642.059 524.013 642.304 524.406 642.427 524.826 642.427 525.272 642.427 525.591 642.315 526.016 642.091 526.548 641.866 527.079 641.519 527.648 641.049 528.254 640.579 528.859 639.992 529.465 639.287 530.071 638.582 530.677 637.754 531.229 636.804 531.729 635.853 532.228 634.769 532.632 633.552 532.94 632.334 533.249 630.988 533.403 629.515 533.403 628.297 533.403 627.266 533.286 626.423 533.052 625.579 532.818 624.885 532.505 624.34 532.112 623.795 531.718 623.373 531.272 623.074 530.772 622.775 530.273 622.556 529.763 622.418 529.242 622.279 528.721 622.193 528.211 622.161 527.712 622.129 527.212 622.113 526.771 622.113 526.388 622.113 525.814 622.172 525.23 622.289 524.635 622.407 524.04 622.54 523.492 622.69 522.993 622.84 522.493 622.989 522.073 623.138 521.733 623.288 521.393 623.406 521.181 623.491 521.096 623.534 521.053 623.576 521.032 623.619 521.032 623.726 521.032 623.833 521.085 623.94 521.191 623.769 521.616 623.625 522.164 623.507 522.833 623.39 523.503 623.331 524.188 623.331 524.89 623.331 525.527 623.459 526.165 623.715 526.803 623.972 527.44 624.383 528.014 624.949 528.525 625.515 529.035 626.252 529.449 627.16 529.768 628.068 530.087 629.162 530.246 630.444 530.246 631.789 530.246 633.066 530.119 634.273 529.864 635.48 529.609 636.542 529.295 637.461 528.923 638.379 528.551 639.105 528.153 639.639 527.727 640.174 527.302 640.44 526.909 640.44 526.548 640.44 526.165 640.2 525.777 639.72 525.384 639.239 524.991 638.62 524.619 637.861 524.268 637.103 523.917 636.27 523.593 635.362 523.296 634.454 522.998 633.584 522.764 632.751 522.594 632.986 522.084 633.258 521.643 633.568 521.271 633.878 520.899 634.171 520.702 634.449 520.681 636.307 520.213 637.637 519.703 638.438 519.151 639.239 518.598 639.639 517.865 639.639 516.951 639.405 516.972 639.17 516.988 638.935 516.998 638.7 517.009 638.465 517.014 638.23 517.014 637.375 517.014 636.58 516.945 635.843 516.807 635.106 516.669 634.465 516.451 633.92 516.154 633.376 515.856 632.948 515.468 632.639 514.99 632.329 514.512 632.174 513.922 632.174 513.22 632.174 512.519 632.276 511.796 632.478 511.052 632.681 510.308 632.975 509.628 633.36 509.012 633.744 508.395 634.203 507.885 634.737 507.481 635.271 507.077 635.859 506.875 636.5 506.875ZM687.356 504.388 687.484 504.388C687.698 504.495 687.992 504.718 688.365 505.058 688.739 505.398 689.044 505.727 689.279 506.046L689.279 506.174C689.15 506.28 689.006 506.413 688.846 506.572 688.686 506.732 688.52 506.897 688.349 507.067 688.179 507.237 688.018 507.401 687.869 507.561 687.719 507.72 687.602 507.842 687.516 507.928L687.388 507.928C687.196 507.672 686.94 507.385 686.619 507.067 686.299 506.748 685.968 506.503 685.626 506.333L685.626 506.206C685.626 506.184 685.711 506.073 685.882 505.871 686.053 505.669 686.245 505.462 686.459 505.249 686.673 505.037 686.87 504.84 687.052 504.659 687.233 504.479 687.335 504.388 687.356 504.388ZM665.232 504.229 665.328 504.261C665.392 504.601 665.456 505.138 665.52 505.871 665.584 506.604 665.649 507.46 665.713 508.438 665.777 509.415 665.841 510.478 665.905 511.626 665.969 512.774 666.022 513.938 666.065 515.117 666.108 516.297 666.14 517.456 666.161 518.593 666.183 519.73 666.193 520.766 666.193 521.701 666.193 522.297 666.167 522.823 666.113 523.28 666.06 523.737 665.964 524.183 665.825 524.619 665.686 525.055 665.488 525.506 665.232 525.974 664.976 526.442 664.655 526.962 664.271 527.536L664.143 527.536 663.982 527.409C664.089 526.856 664.159 525.984 664.191 524.794 664.223 523.604 664.239 522.18 664.239 520.522 664.239 519.608 664.217 518.556 664.175 517.365 664.132 516.175 664.078 514.979 664.015 513.778 663.95 512.577 663.87 511.429 663.774 510.335 663.678 509.24 663.577 508.321 663.47 507.577 663.448 507.513 663.438 507.428 663.438 507.322 663.438 507.215 663.438 507.141 663.438 507.099 663.438 506.928 663.459 506.758 663.502 506.588 663.545 506.418 663.619 506.27 663.726 506.142ZM563.102 504.229 563.198 504.261C563.262 504.601 563.327 505.138 563.391 505.871 563.455 506.604 563.519 507.46 563.583 508.438 563.647 509.415 563.711 510.478 563.775 511.626 563.839 512.774 563.893 513.938 563.935 515.117 563.978 516.297 564.01 517.456 564.031 518.593 564.053 519.73 564.063 520.766 564.063 521.701 564.063 522.297 564.037 522.823 563.983 523.28 563.93 523.737 563.834 524.183 563.695 524.619 563.556 525.055 563.359 525.506 563.102 525.974 562.846 526.442 562.526 526.962 562.141 527.536L562.013 527.536 561.853 527.409C561.959 526.856 562.029 525.984 562.061 524.794 562.093 523.604 562.109 522.18 562.109 520.522 562.109 519.608 562.088 518.556 562.045 517.365 562.002 516.175 561.949 514.979 561.885 513.778 561.821 512.577 561.74 511.429 561.644 510.335 561.548 509.24 561.447 508.321 561.34 507.577 561.319 507.513 561.308 507.428 561.308 507.322 561.308 507.215 561.308 507.141 561.308 507.099 561.308 506.928 561.329 506.758 561.372 506.588 561.415 506.418 561.49 506.27 561.596 506.142ZM579.411 503.878C579.496 503.878 579.566 503.91 579.619 503.974 579.673 504.038 579.699 504.101 579.699 504.165L579.795 506.907C579.838 507.757 579.87 508.73 579.892 509.825 579.913 510.919 579.924 512.072 579.924 513.284 579.924 513.986 579.924 514.698 579.924 515.42 579.924 516.143 579.902 516.855 579.86 517.556 579.838 517.812 579.828 518.056 579.828 518.29 579.828 518.524 579.828 518.757 579.828 518.991 579.828 519.863 579.881 520.639 579.988 521.319 580.094 521.999 580.287 522.573 580.564 523.041 580.842 523.508 581.227 523.859 581.718 524.093L583.037 524.337 583.072 524.332C583.339 524.257 583.616 524.109 583.905 523.885 584.193 523.662 584.492 523.349 584.802 522.945 585.112 522.541 585.416 521.999 585.715 521.319 586.142 520.362 586.575 519.608 587.013 519.055 587.451 518.502 587.867 518.083 588.262 517.796 588.657 517.509 589.015 517.328 589.336 517.254 589.656 517.179 589.902 517.142 590.073 517.142 590.607 517.142 591.141 517.312 591.675 517.652 592.209 517.992 592.689 518.428 593.116 518.959 593.544 519.491 593.885 520.091 594.142 520.761 594.398 521.43 594.526 522.084 594.526 522.722 594.526 523.168 594.425 523.657 594.222 524.188 594.019 524.72 593.773 525.219 593.485 525.687 593.197 526.155 592.903 526.542 592.604 526.851 592.305 527.159 592.048 527.313 591.835 527.313 590.809 527.313 589.725 527.1 588.583 526.675 587.44 526.25 586.388 525.549 585.427 524.571L585.33 524.762 584.441 525.866 584.441 525.878C584.441 526.367 584.308 526.697 584.041 526.867 583.774 527.037 583.416 527.122 582.967 527.122L582.169 527.06 581.742 527.122 581.506 527.004 580.404 526.675C579.763 526.378 579.278 525.963 578.946 525.432 578.615 524.9 578.402 524.289 578.306 523.599 578.209 522.908 578.161 522.158 578.161 521.351L578.161 516.281C578.161 515.303 578.145 514.278 578.113 513.204 578.081 512.131 578.028 511.116 577.953 510.159 577.878 509.203 577.788 508.363 577.681 507.641 577.574 506.918 577.446 506.418 577.296 506.142 577.467 505.993 577.649 505.807 577.841 505.584 578.033 505.361 578.22 505.143 578.402 504.93 578.583 504.718 578.744 504.521 578.882 504.341 579.021 504.16 579.123 504.038 579.187 503.974 579.251 503.91 579.326 503.878 579.411 503.878ZM606.83 503.464 606.958 503.464C606.979 503.57 607.06 503.809 607.198 504.181 607.337 504.553 607.508 504.973 607.711 505.441 607.914 505.908 608.138 506.37 608.384 506.827 608.629 507.285 608.88 507.651 609.137 507.928L609.041 508.119C608.763 508.119 608.533 508.119 608.352 508.119 608.17 508.119 607.994 508.098 607.823 508.055 607.951 509.012 608.037 509.867 608.079 510.622 608.122 511.376 608.143 512.157 608.143 512.965 608.143 514.241 607.999 515.42 607.711 516.504 607.423 517.588 607.011 518.609 606.477 519.565 607.353 521.011 607.791 522.01 607.791 522.562 607.791 523.009 607.722 523.46 607.583 523.917 607.444 524.374 607.246 524.805 606.99 525.209 606.734 525.612 606.435 525.958 606.093 526.245 605.751 526.532 605.377 526.728 604.971 526.835 604.459 526.962 603.957 527.042 603.466 527.074 602.974 527.106 602.323 527.122 601.511 527.122 601.34 527.122 601.02 527.111 600.55 527.09 600.08 527.069 599.546 527.037 598.948 526.994L598.82 524.38C598.991 524.401 599.161 524.412 599.332 524.412 599.503 524.412 599.663 524.412 599.813 524.412 600.091 524.412 600.432 524.3 600.838 524.077 601.244 523.854 601.677 523.545 602.136 523.152 602.595 522.759 603.06 522.275 603.53 521.701 604 521.128 604.427 520.49 604.811 519.788 604.042 518.832 602.958 517.631 601.559 516.185 600.16 514.74 598.307 512.976 596 510.893L595.648 511.658 595.552 511.69C595.402 511.392 595.258 511.116 595.119 510.861 594.98 510.606 594.857 510.361 594.75 510.128 594.537 509.724 594.35 509.352 594.19 509.012 594.03 508.672 593.949 508.459 593.949 508.374 593.949 508.331 593.998 508.204 594.094 507.991 594.19 507.779 594.302 507.556 594.43 507.322L594.911 506.429 595.103 506.429C597.688 509.001 599.829 511.254 601.527 513.188 603.225 515.123 604.566 516.791 605.548 518.194 605.762 517.641 605.927 517.062 606.045 516.457 606.162 515.851 606.221 515.229 606.221 514.591 606.221 513.869 606.189 513.183 606.125 512.535 606.061 511.886 605.981 511.227 605.885 510.558 605.788 509.888 605.676 509.192 605.548 508.47 605.42 507.747 605.292 506.95 605.164 506.078 605.142 506.057 605.132 505.887 605.132 505.568 605.132 505.419 605.153 505.265 605.196 505.106 605.238 504.946 605.335 504.803 605.484 504.675ZM612.629 502.156C612.693 502.709 612.811 503.161 612.982 503.512 613.152 503.862 613.366 504.165 613.622 504.42 613.879 504.675 614.183 504.888 614.536 505.058 614.888 505.228 615.278 505.398 615.705 505.568L614.552 507.991C614.616 508.969 614.68 510.037 614.744 511.196 614.808 512.354 614.867 513.539 614.92 514.751 614.974 515.962 615.016 517.169 615.048 518.37 615.08 519.57 615.096 520.681 615.096 521.701 615.096 522.297 615.07 522.823 615.016 523.28 614.963 523.737 614.867 524.183 614.728 524.619 614.589 525.055 614.391 525.506 614.135 525.974 613.879 526.442 613.558 526.962 613.174 527.536L613.046 527.536 612.885 527.409C612.992 526.856 613.062 525.984 613.094 524.794 613.126 523.604 613.142 522.18 613.142 520.522 613.142 519.501 613.115 518.37 613.062 517.126 613.008 515.883 612.944 514.644 612.87 513.412 612.795 512.179 612.709 510.999 612.613 509.872 612.517 508.746 612.426 507.779 612.341 506.971 612.127 506.758 611.924 506.503 611.732 506.206 611.54 505.908 611.444 505.589 611.444 505.249 611.444 504.845 611.55 504.33 611.764 503.703 611.978 503.076 612.266 502.56 612.629 502.156ZM636.307 499 636.435 499C636.649 499.106 636.943 499.329 637.317 499.669 637.69 500.01 637.995 500.339 638.23 500.658L638.23 500.785C638.102 500.892 637.957 501.025 637.797 501.184 637.637 501.343 637.471 501.508 637.301 501.678 637.13 501.848 636.969 502.013 636.82 502.172 636.67 502.332 636.553 502.454 636.467 502.539L636.339 502.539C636.147 502.284 635.891 501.997 635.57 501.678 635.25 501.359 634.919 501.115 634.577 500.945L634.577 500.817C634.577 500.796 634.663 500.684 634.833 500.483 635.004 500.281 635.197 500.073 635.41 499.861 635.624 499.648 635.821 499.452 636.003 499.271 636.185 499.09 636.286 499 636.307 499Z" fill="#545454" fill-rule="evenodd"/><path d="M775.015 517 886.573 517C889.018 517 891 518.791 891 521 891 523.209 889.018 525 886.573 525L775.015 525ZM393.427 517 504.083 517 504.083 525 393.427 525C390.982 525 389 523.209 389 521 389 518.791 390.982 517 393.427 517Z" fill="#F5D7CC" fill-rule="evenodd"/><path d="M797.936 471.309C796.951 472.634 795.906 473.832 794.803 474.904 793.7 475.975 792.399 476.959 790.902 477.855 791.532 477.933 792.143 477.972 792.734 477.972 793.325 477.972 794.133 477.972 795.158 477.972 797.167 477.972 798.557 477.768 799.325 477.359 800.094 476.95 800.478 476.628 800.478 476.394 800.478 476.238 800.458 476.044 800.419 475.81 800.379 475.576 800.281 475.264 800.123 474.875 799.965 474.485 799.709 473.998 799.355 473.413 799 472.829 798.527 472.128 797.936 471.309ZM633.541 468.971C632.99 468.971 632.458 469.147 631.945 469.497 631.433 469.848 630.96 470.286 630.526 470.812 630.093 471.338 629.709 471.923 629.374 472.566 629.039 473.209 628.753 473.823 628.517 474.407 629.66 475.732 630.999 476.764 632.536 477.505 634.073 478.245 635.669 478.615 637.324 478.615 639.216 478.615 640.162 477.797 640.162 476.16 640.162 475.849 639.975 475.293 639.6 474.495 639.226 473.696 638.733 472.887 638.122 472.069 637.512 471.251 636.812 470.53 636.024 469.907 635.236 469.283 634.408 468.971 633.541 468.971ZM511.309 468.971C510.758 468.971 510.226 469.147 509.713 469.497 509.201 469.848 508.728 470.286 508.295 470.812 507.861 471.338 507.477 471.923 507.142 472.566 506.807 473.209 506.521 473.823 506.285 474.407 507.428 475.732 508.768 476.764 510.305 477.505 511.841 478.245 513.438 478.615 515.093 478.615 516.984 478.615 517.93 477.797 517.93 476.16 517.93 475.849 517.743 475.293 517.369 474.495 516.994 473.696 516.501 472.887 515.891 472.069 515.28 471.251 514.58 470.53 513.792 469.907 513.004 469.283 512.176 468.971 511.309 468.971ZM541.55 465.406C541.038 465.406 540.486 465.445 539.895 465.523 539.304 465.601 538.703 465.698 538.092 465.815 537.481 465.932 536.9 466.068 536.348 466.224 535.796 466.38 535.323 466.536 534.929 466.692 535.402 467.237 535.875 467.861 536.348 468.562 536.821 469.264 537.333 469.975 537.885 470.695 538.437 471.416 539.057 472.128 539.747 472.829 540.437 473.53 541.254 474.173 542.2 474.758 543.737 473.978 544.939 473.033 545.806 471.923 546.673 470.812 547.106 469.79 547.106 468.854 547.106 468.465 547.028 468.065 546.87 467.656 546.712 467.247 546.427 466.877 546.013 466.546 545.599 466.215 545.028 465.942 544.299 465.727 543.569 465.513 542.653 465.406 541.55 465.406ZM738.184 461.957 738.42 461.957C739.405 463.75 740.134 465.552 740.607 467.364 741.08 469.176 741.317 470.861 741.317 472.42 741.317 473.238 741.139 474.066 740.785 474.904 740.43 475.742 740.006 476.511 739.514 477.213 739.021 477.914 738.509 478.537 737.977 479.083 737.445 479.628 736.982 480.038 736.588 480.31 735.524 481.129 734.085 481.82 732.272 482.385 730.46 482.95 728.46 483.408 726.273 483.759 724.085 484.109 721.79 484.363 719.386 484.519 716.982 484.674 714.657 484.752 712.411 484.752 709.14 484.752 706.362 484.47 704.076 483.905 701.79 483.34 699.938 482.551 698.519 481.538 697.101 480.525 696.066 479.317 695.416 477.914 694.766 476.511 694.441 474.972 694.441 473.296 694.441 471.777 694.608 470.374 694.943 469.088 695.278 467.802 695.643 466.965 696.037 466.575 696.116 466.497 696.194 466.458 696.273 466.458 696.391 466.458 696.51 466.516 696.628 466.633 696.588 466.945 696.549 467.325 696.51 467.773 696.47 468.221 696.451 468.543 696.451 468.737 696.451 472.283 697.997 474.933 701.091 476.687 704.184 478.44 709.12 479.317 715.898 479.317 723.386 479.317 729.09 478.869 733.011 477.972 736.932 477.076 738.893 475.907 738.893 474.465 738.893 473.881 738.726 473.092 738.391 472.098 738.056 471.105 737.258 469.829 735.996 468.27 735.76 467.997 735.642 467.666 735.642 467.276 735.642 466.926 735.721 466.614 735.878 466.341ZM721.278 454.301 721.514 454.301C721.908 454.496 722.45 454.905 723.14 455.528 723.829 456.152 724.391 456.756 724.824 457.34L724.824 457.574C724.588 457.769 724.322 458.012 724.026 458.305 723.731 458.597 723.425 458.899 723.11 459.21 722.795 459.522 722.499 459.824 722.223 460.116 721.948 460.409 721.731 460.633 721.573 460.789L721.337 460.789C720.982 460.321 720.509 459.795 719.918 459.21 719.327 458.626 718.716 458.178 718.086 457.866L718.086 457.632C718.086 457.593 718.243 457.389 718.559 457.019 718.874 456.648 719.228 456.268 719.622 455.879 720.017 455.489 720.381 455.129 720.716 454.798 721.051 454.466 721.238 454.301 721.278 454.301ZM714.007 454.301 714.243 454.301C714.637 454.496 715.179 454.905 715.869 455.528 716.558 456.152 717.12 456.756 717.554 457.34L717.554 457.574C717.317 457.769 717.051 458.012 716.755 458.305 716.46 458.597 716.155 458.899 715.839 459.21 715.524 459.522 715.229 459.824 714.953 460.116 714.677 460.409 714.46 460.633 714.302 460.789L714.066 460.789C713.711 460.321 713.238 459.795 712.647 459.21 712.056 458.626 711.445 458.178 710.815 457.866L710.815 457.632C710.815 457.593 710.972 457.389 711.288 457.019 711.603 456.648 711.958 456.268 712.352 455.879 712.746 455.489 713.11 455.129 713.445 454.798 713.78 454.466 713.967 454.301 714.007 454.301ZM571.249 454.301 571.486 454.301C571.88 454.496 572.422 454.905 573.111 455.528 573.801 456.152 574.362 456.756 574.796 457.34L574.796 457.574C574.559 457.769 574.293 458.012 573.998 458.305 573.702 458.597 573.397 458.899 573.082 459.21 572.766 459.522 572.471 459.824 572.195 460.116 571.919 460.409 571.702 460.633 571.545 460.789L571.308 460.789C570.954 460.321 570.481 459.795 569.89 459.21 569.298 458.626 568.688 458.178 568.057 457.866L568.057 457.632C568.057 457.593 568.215 457.389 568.53 457.019 568.845 456.648 569.2 456.268 569.594 455.879 569.988 455.489 570.353 455.129 570.688 454.798 571.023 454.466 571.21 454.301 571.249 454.301ZM563.978 454.301 564.215 454.301C564.609 454.496 565.151 454.905 565.84 455.528 566.53 456.152 567.092 456.756 567.525 457.34L567.525 457.574C567.289 457.769 567.023 458.012 566.727 458.305 566.432 458.597 566.126 458.899 565.811 459.21 565.496 459.522 565.2 459.824 564.924 460.116 564.648 460.409 564.432 460.633 564.274 460.789L564.037 460.789C563.683 460.321 563.21 459.795 562.619 459.21 562.028 458.626 561.417 458.178 560.786 457.866L560.786 457.632C560.786 457.593 560.944 457.389 561.259 457.019 561.574 456.648 561.929 456.268 562.323 455.879 562.717 455.489 563.082 455.129 563.417 454.798 563.752 454.466 563.939 454.301 563.978 454.301ZM771.029 448.514 771.265 448.514C771.66 448.709 772.201 449.118 772.891 449.742 773.581 450.365 774.142 450.969 774.576 451.554L774.576 451.787C774.339 451.982 774.073 452.226 773.778 452.518 773.482 452.81 773.177 453.112 772.861 453.424 772.546 453.736 772.251 454.038 771.975 454.33 771.699 454.622 771.482 454.846 771.324 455.002L771.088 455.002C770.733 454.534 770.26 454.009 769.669 453.424 769.078 452.84 768.467 452.391 767.837 452.08L767.837 451.846C767.837 451.807 767.995 451.602 768.31 451.232 768.625 450.862 768.98 450.482 769.374 450.092 769.768 449.703 770.132 449.342 770.467 449.011 770.802 448.68 770.99 448.514 771.029 448.514ZM763.758 448.514 763.995 448.514C764.389 448.709 764.931 449.118 765.62 449.742 766.31 450.365 766.871 450.969 767.305 451.554L767.305 451.787C767.068 451.982 766.802 452.226 766.507 452.518 766.211 452.81 765.906 453.112 765.591 453.424 765.275 453.736 764.98 454.038 764.704 454.33 764.428 454.622 764.211 454.846 764.054 455.002L763.817 455.002C763.463 454.534 762.99 454.009 762.399 453.424 761.807 452.84 761.197 452.391 760.566 452.08L760.566 451.846C760.566 451.807 760.724 451.602 761.039 451.232 761.354 450.862 761.709 450.482 762.103 450.092 762.497 449.703 762.862 449.342 763.197 449.011 763.532 448.68 763.719 448.514 763.758 448.514ZM717.317 446.878 717.554 446.878C717.948 447.073 718.49 447.482 719.179 448.105 719.869 448.729 720.43 449.333 720.864 449.917L720.864 450.151C720.627 450.346 720.361 450.589 720.066 450.882 719.77 451.174 719.465 451.476 719.15 451.787 718.834 452.099 718.539 452.401 718.263 452.693 717.987 452.986 717.77 453.21 717.613 453.366L717.376 453.366C717.022 452.898 716.549 452.372 715.958 451.787 715.366 451.203 714.756 450.755 714.125 450.443L714.125 450.209C714.125 450.17 714.283 449.966 714.598 449.596 714.913 449.225 715.268 448.845 715.662 448.456 716.056 448.066 716.421 447.706 716.755 447.375 717.091 447.043 717.278 446.878 717.317 446.878ZM767.068 441.091 767.305 441.091C767.699 441.286 768.241 441.695 768.93 442.319 769.62 442.942 770.182 443.546 770.615 444.131L770.615 444.365C770.379 444.559 770.113 444.803 769.817 445.095 769.522 445.387 769.216 445.689 768.901 446.001 768.586 446.313 768.29 446.615 768.014 446.907 767.738 447.199 767.522 447.423 767.364 447.579L767.128 447.579C766.773 447.112 766.3 446.586 765.709 446.001 765.118 445.417 764.507 444.968 763.876 444.657L763.876 444.423C763.876 444.384 764.034 444.179 764.349 443.809 764.665 443.439 765.019 443.059 765.413 442.669 765.807 442.28 766.172 441.919 766.507 441.588 766.842 441.257 767.029 441.091 767.068 441.091ZM753.577 440.156C753.734 440.156 753.863 440.215 753.961 440.332 754.06 440.448 754.109 440.565 754.109 440.682L754.286 445.709C754.365 447.267 754.424 449.05 754.464 451.057 754.503 453.064 754.523 455.177 754.523 457.398 754.523 458.684 754.523 459.99 754.523 461.315 754.523 462.639 754.483 463.945 754.404 465.231 754.365 465.698 754.345 466.146 754.345 466.575 754.345 467.004 754.345 467.432 754.345 467.861 754.345 469.458 754.444 470.881 754.641 472.128 754.838 473.374 755.193 474.426 755.705 475.284 756.217 476.141 756.927 476.784 757.833 477.213 758.286 477.427 758.803 477.588 759.385 477.695L761.246 477.849 764.541 477.622C765.497 477.466 766.28 477.232 766.891 476.92 768.113 476.297 768.724 475.479 768.724 474.465 768.724 473.881 768.556 473.092 768.221 472.098 767.886 471.105 767.088 469.829 765.827 468.27 765.591 467.997 765.472 467.666 765.472 467.276 765.472 466.926 765.551 466.614 765.709 466.341L768.014 461.957 768.251 461.957C769.236 463.75 769.965 465.552 770.438 467.364 770.911 469.176 771.147 470.861 771.147 472.42 771.147 473.277 771.029 474.115 770.792 474.933 770.556 475.751 770.26 476.511 769.906 477.213 769.551 477.914 769.167 478.537 768.753 479.083 768.339 479.628 767.955 480.057 767.6 480.369 766.773 481.148 765.768 481.742 764.586 482.152 763.995 482.356 763.315 482.509 762.546 482.612L760.354 482.743 760.138 482.765 760.067 482.76 759.975 482.765 759.895 482.746 757.478 482.561C756.69 482.424 756 482.22 755.409 481.947 754.227 481.401 753.331 480.642 752.72 479.667 752.109 478.693 751.715 477.573 751.537 476.307 751.36 475.04 751.271 473.667 751.271 472.186L751.271 462.893C751.271 461.1 751.242 459.22 751.183 457.252 751.124 455.285 751.025 453.424 750.887 451.671 750.749 449.917 750.582 448.378 750.385 447.053 750.188 445.728 749.951 444.813 749.675 444.306 749.991 444.033 750.326 443.692 750.68 443.283 751.035 442.874 751.38 442.475 751.715 442.085 752.05 441.695 752.345 441.335 752.602 441.004 752.858 440.673 753.045 440.448 753.163 440.332 753.281 440.215 753.419 440.156 753.577 440.156ZM800.123 439.396 800.359 439.396C800.399 439.591 800.547 440.03 800.803 440.711 801.059 441.393 801.374 442.163 801.749 443.02 802.123 443.877 802.537 444.725 802.99 445.563 803.443 446.4 803.906 447.073 804.379 447.579L804.202 447.93C803.689 447.93 803.266 447.93 802.931 447.93 802.596 447.93 802.271 447.891 801.956 447.813 802.192 449.566 802.35 451.135 802.429 452.518 802.507 453.901 802.547 455.333 802.547 456.814 802.547 459.152 802.281 461.315 801.749 463.302 801.217 465.289 800.458 467.159 799.473 468.913 801.089 471.562 801.896 473.394 801.896 474.407 801.896 475.225 801.768 476.053 801.512 476.891 801.256 477.729 800.892 478.518 800.419 479.258 799.946 479.999 799.394 480.632 798.764 481.158 798.133 481.684 797.443 482.044 796.695 482.239 795.749 482.473 794.823 482.619 793.916 482.677 793.01 482.736 791.808 482.765 790.311 482.765 789.995 482.765 789.404 482.746 788.537 482.707 787.67 482.668 786.685 482.609 785.582 482.531L785.345 477.739C785.66 477.778 785.976 477.797 786.291 477.797 786.606 477.797 786.902 477.797 787.178 477.797 787.69 477.797 788.32 477.592 789.069 477.183 789.818 476.774 790.616 476.209 791.463 475.488 792.31 474.767 793.168 473.881 794.035 472.829 794.902 471.777 795.69 470.608 796.399 469.322 794.98 467.569 792.98 465.367 790.399 462.717 787.818 460.068 784.399 456.834 780.143 453.015L779.493 454.418 779.316 454.476C779.04 453.931 778.774 453.424 778.518 452.956 778.262 452.489 778.035 452.041 777.838 451.612 777.444 450.872 777.099 450.19 776.803 449.566 776.508 448.943 776.36 448.553 776.36 448.397 776.36 448.32 776.449 448.086 776.626 447.696 776.803 447.306 777.01 446.897 777.247 446.469L778.133 444.832 778.488 444.832C783.257 449.547 787.207 453.677 790.34 457.223 793.473 460.769 795.946 463.828 797.759 466.4 798.153 465.386 798.458 464.325 798.675 463.214 798.892 462.104 799 460.964 799 459.795 799 458.47 798.941 457.213 798.823 456.025 798.704 454.837 798.557 453.629 798.379 452.401 798.202 451.174 797.995 449.898 797.759 448.573 797.522 447.248 797.286 445.787 797.049 444.189 797.01 444.15 796.99 443.838 796.99 443.254 796.99 442.981 797.03 442.699 797.108 442.407 797.187 442.114 797.365 441.851 797.64 441.617ZM656.097 437.409C656.215 438.422 656.432 439.25 656.747 439.893 657.062 440.536 657.457 441.091 657.93 441.559 658.402 442.027 658.964 442.416 659.614 442.728 660.264 443.04 660.984 443.351 661.772 443.663L659.644 448.456C659.762 451.573 659.861 454.213 659.939 456.376 660.018 458.538 660.087 460.34 660.146 461.782 660.205 463.224 660.245 464.354 660.264 465.172 660.284 465.99 660.304 466.604 660.324 467.013 660.343 467.422 660.353 467.695 660.353 467.832 660.353 467.968 660.353 468.056 660.353 468.095 660.353 469.809 660.048 471.543 659.437 473.296 658.826 475.05 657.969 476.628 656.865 478.031 655.762 479.434 654.432 480.573 652.875 481.45 652.097 481.888 651.282 482.217 650.43 482.436L649.496 482.551 649.258 482.648C648.928 482.726 648.556 482.765 648.142 482.765L647.979 482.738 647.762 482.765C647.565 482.765 647.378 482.721 647.201 482.634L647.163 482.604 646.546 482.502C645.994 482.327 645.423 482.064 644.832 481.713 643.649 481.012 642.507 479.667 641.403 477.68 641.245 478.265 640.999 478.878 640.664 479.521 640.329 480.164 639.945 480.768 639.512 481.333 639.078 481.898 638.605 482.356 638.093 482.707 637.581 483.057 637.068 483.233 636.556 483.233 634.783 483.233 633.088 482.833 631.472 482.035 629.857 481.236 628.221 479.843 626.566 477.855 625.936 479.297 625.019 480.476 623.817 481.392 622.615 482.307 621.246 482.765 619.709 482.765L619.477 482.711 618.958 482.765C615.293 482.765 612.81 481.285 611.509 478.323 611.194 478.752 610.83 479.229 610.416 479.755 610.002 480.281 609.529 480.768 608.997 481.216 608.465 481.664 607.854 482.035 607.165 482.327 606.475 482.619 605.657 482.765 604.712 482.765 604.239 482.765 603.736 482.707 603.204 482.59 602.672 482.473 602.15 482.249 601.638 481.918 601.125 481.586 600.662 481.138 600.249 480.573 599.835 480.008 599.529 479.258 599.332 478.323 598.032 479.687 596.722 480.768 595.401 481.567 594.081 482.366 592.515 482.765 590.702 482.765 589.441 482.765 588.239 482.453 587.096 481.83 585.953 481.207 585.165 480.038 584.732 478.323 584.377 478.791 583.963 479.278 583.49 479.784 583.017 480.291 582.397 480.768 581.628 481.216 580.86 481.664 579.914 482.035 578.791 482.327 577.668 482.619 576.279 482.765 574.624 482.765L574.476 482.731 574.146 482.765C573.239 482.765 572.382 482.707 571.574 482.59 570.766 482.473 570.037 482.249 569.387 481.918 568.737 481.586 568.175 481.138 567.702 480.573 567.229 480.008 566.895 479.258 566.698 478.323 566.343 478.791 565.929 479.278 565.456 479.784 564.983 480.291 564.363 480.768 563.594 481.216 562.826 481.664 561.88 482.035 560.757 482.327 559.634 482.619 558.244 482.765 556.589 482.765L556.234 482.682 555.441 482.765C552.131 482.765 549.333 482.444 547.047 481.801 544.762 481.158 542.634 480.193 540.663 478.908 539.639 479.492 538.634 480.028 537.648 480.515 536.663 481.002 535.599 481.411 534.456 481.742 533.313 482.073 532.023 482.327 530.585 482.502L526.285 482.726 525.91 482.765 525.819 482.75 525.53 482.765C525.333 482.765 525.146 482.721 524.969 482.634L524.931 482.604 524.314 482.502C523.762 482.327 523.191 482.064 522.6 481.713 521.418 481.012 520.275 479.667 519.171 477.68 519.014 478.265 518.767 478.878 518.432 479.521 518.098 480.164 517.713 480.768 517.28 481.333 516.846 481.898 516.373 482.356 515.861 482.707 515.349 483.057 514.836 483.233 514.324 483.233 512.551 483.233 510.856 482.833 509.241 482.035 507.625 481.236 505.989 479.843 504.334 477.855 503.704 479.297 502.787 480.476 501.586 481.392 500.985 481.849 500.342 482.193 499.657 482.422L498.717 482.57 498.524 482.648 497.615 482.743 497.477 482.765 497.456 482.76 497.408 482.765C495.635 482.765 494.078 482.337 492.738 481.479 491.398 480.622 490.393 479.648 489.724 478.557 489.33 479.921 488.768 481.382 488.039 482.94 487.31 484.499 486.315 485.951 485.054 487.295 483.793 488.639 482.226 489.76 480.354 490.656 478.482 491.552 476.207 492 473.527 492 469.941 492 467.123 491.045 465.074 489.136 463.025 487.227 462 484.441 462 480.778 462 479.999 462.081 479.132 462.243 478.177 462.405 477.222 462.607 476.287 462.85 475.371 463.093 474.456 463.366 473.608 463.67 472.829 463.974 472.05 464.284 471.426 464.601 470.959 464.68 470.881 464.739 470.842 464.778 470.842 464.857 470.842 464.936 470.881 465.015 470.959 465.094 471.037 465.153 471.095 465.192 471.134 465.113 471.251 465.025 471.543 464.926 472.011 464.828 472.478 464.729 473.014 464.63 473.618 464.532 474.222 464.443 474.865 464.364 475.547 464.286 476.229 464.246 476.862 464.246 477.446 464.246 478.382 464.403 479.395 464.718 480.486 465.032 481.577 465.563 482.57 466.31 483.467 467.057 484.363 468.039 485.113 469.258 485.717 470.476 486.321 471.97 486.623 473.739 486.623 476.373 486.623 478.584 486.243 480.373 485.483 482.161 484.723 483.596 483.856 484.677 482.882 485.758 481.908 486.525 480.943 486.977 479.989 487.429 479.034 487.655 478.342 487.655 477.914 487.655 477.057 487.615 475.732 487.536 473.939 487.458 472.147 487.359 470.131 487.241 467.89 487.123 465.649 486.985 463.312 486.827 460.876 486.669 458.441 486.512 456.142 486.354 453.979 486.197 451.817 486.039 449.907 485.881 448.251 485.724 446.595 485.586 445.436 485.467 444.774L485.467 444.598C485.467 444.365 485.664 444.014 486.059 443.546 486.453 443.079 486.906 442.631 487.418 442.202 487.694 441.929 487.999 441.666 488.334 441.413 488.669 441.16 489.034 440.877 489.428 440.565L490.137 440.858C490.098 442.104 490.078 443.351 490.078 444.598 490.078 445.845 490.078 447.092 490.078 448.339 490.078 451.885 490.127 455.47 490.226 459.093 490.324 462.717 490.472 466.478 490.669 470.374 490.709 471.426 490.935 472.41 491.349 473.326 491.763 474.241 492.315 475.03 493.004 475.693 493.694 476.355 494.512 476.881 495.457 477.271 496.403 477.661 497.447 477.855 498.59 477.855L498.619 477.861 498.66 477.855C499.645 477.855 500.492 477.651 501.201 477.242 501.911 476.833 502.502 476.316 502.975 475.693 503.448 475.069 503.842 474.387 504.157 473.647 504.472 472.907 504.748 472.186 504.984 471.485 505.812 469.225 506.837 467.491 508.058 466.283 509.28 465.075 510.521 464.471 511.782 464.471 512.689 464.471 513.526 464.666 514.295 465.055 515.063 465.445 515.782 465.961 516.452 466.604 517.122 467.247 517.733 467.978 518.285 468.796 518.836 469.614 519.349 470.452 519.822 471.309 520.492 472.634 521.112 473.715 521.684 474.553 522.255 475.391 522.817 476.053 523.368 476.54 523.92 477.027 524.501 477.368 525.112 477.563L527.057 477.85 530.614 477.797C531.718 477.758 532.693 477.7 533.54 477.622 534.387 477.544 535.166 477.437 535.875 477.3 536.584 477.164 537.274 476.998 537.944 476.803 536.998 475.946 536.151 475.001 535.402 473.969 534.653 472.936 533.954 471.952 533.304 471.017 532.653 470.082 532.003 469.264 531.353 468.562 530.703 467.861 529.984 467.393 529.195 467.159L530.851 463.536C531.521 463.419 532.358 463.224 533.363 462.951 534.368 462.678 535.432 462.396 536.555 462.104 537.678 461.811 538.811 461.558 539.954 461.344 541.097 461.129 542.161 461.022 543.146 461.022 544.722 461.022 546.023 461.178 547.047 461.49 548.072 461.802 548.88 462.211 549.471 462.717 550.062 463.224 550.476 463.799 550.712 464.442 550.949 465.085 551.067 465.757 551.067 466.458 551.067 468.095 550.495 469.682 549.353 471.222 548.21 472.761 546.633 474.349 544.624 475.985 546.121 476.648 547.786 477.125 549.619 477.417 551.451 477.709 553.786 477.855 556.623 477.855L557.093 477.943 557.772 477.855C559.269 477.855 560.53 477.719 561.555 477.446 562.579 477.174 563.417 476.823 564.067 476.394 564.717 475.966 565.22 475.518 565.574 475.05 565.929 474.582 566.185 474.134 566.343 473.706 566.737 472.615 567.151 471.738 567.584 471.075 568.018 470.413 568.372 469.984 568.648 469.79 568.688 469.751 568.747 469.731 568.826 469.731 568.904 469.731 568.983 469.76 569.062 469.819 569.141 469.877 569.2 469.926 569.239 469.965 569.042 470.277 568.865 470.783 568.707 471.485 568.55 472.186 568.471 472.848 568.471 473.472 568.471 475.108 568.993 476.248 570.037 476.891 571.082 477.534 572.845 477.855 575.328 477.855L575.523 477.892 575.806 477.855C577.303 477.855 578.564 477.719 579.589 477.446 580.614 477.174 581.451 476.823 582.101 476.394 582.751 475.966 583.254 475.518 583.609 475.05 583.963 474.582 584.219 474.134 584.377 473.706 584.771 472.615 585.185 471.738 585.618 471.075 586.052 470.413 586.406 469.984 586.682 469.79 586.722 469.751 586.781 469.731 586.86 469.731 586.939 469.731 587.017 469.76 587.096 469.819 587.175 469.877 587.234 469.926 587.274 469.965 587.076 470.277 586.899 470.783 586.742 471.485 586.584 472.186 586.505 472.848 586.505 473.472 586.505 475.108 586.998 476.248 587.983 476.891 588.968 477.534 590.249 477.855 591.825 477.855 592.929 477.855 593.894 477.719 594.722 477.446 595.549 477.174 596.249 476.823 596.82 476.394 597.392 475.966 597.855 475.518 598.209 475.05 598.564 474.582 598.82 474.134 598.978 473.706 599.372 472.615 599.786 471.738 600.219 471.075 600.653 470.413 601.007 469.984 601.283 469.79 601.322 469.751 601.382 469.731 601.46 469.731 601.539 469.731 601.618 469.76 601.697 469.819 601.776 469.877 601.835 469.926 601.874 469.965 601.677 470.277 601.5 470.783 601.342 471.485 601.185 472.186 601.106 472.848 601.106 473.472 601.106 474.758 601.451 475.81 602.14 476.628 602.83 477.446 604.022 477.855 605.716 477.855 606.741 477.855 607.628 477.573 608.377 477.008 609.125 476.443 609.697 475.829 610.091 475.167 609.973 474.699 609.894 474.241 609.854 473.793 609.815 473.345 609.795 472.907 609.795 472.478 609.795 471.699 609.844 470.998 609.943 470.374 610.042 469.751 610.17 469.283 610.327 468.971 610.367 468.854 610.465 468.796 610.623 468.796 610.78 468.796 610.859 468.835 610.859 468.913 610.977 469.965 611.155 471.027 611.391 472.098 611.628 473.17 612.071 474.134 612.721 474.992 613.371 475.849 614.278 476.54 615.44 477.066 616.603 477.592 618.169 477.855 620.14 477.855L620.447 477.913 620.891 477.855C621.876 477.855 622.724 477.651 623.433 477.242 624.142 476.833 624.734 476.316 625.206 475.693 625.679 475.069 626.073 474.387 626.389 473.647 626.704 472.907 626.98 472.186 627.216 471.485 628.044 469.225 629.068 467.491 630.29 466.283 631.512 465.075 632.753 464.471 634.014 464.471 634.921 464.471 635.758 464.666 636.526 465.055 637.295 465.445 638.014 465.961 638.684 466.604 639.354 467.247 639.965 467.978 640.516 468.796 641.068 469.614 641.581 470.452 642.053 471.309 642.723 472.634 643.344 473.715 643.915 474.553 644.487 475.391 645.048 476.053 645.6 476.54 646.152 477.027 646.733 477.368 647.344 477.563L649.198 477.837 652.935 477.563C653.979 477.368 654.797 477.027 655.388 476.54 655.979 476.053 656.383 475.381 656.599 474.524 656.816 473.667 656.925 472.576 656.925 471.251 656.925 470.121 656.885 468.747 656.806 467.13 656.728 465.513 656.629 463.808 656.511 462.016 656.393 460.224 656.274 458.431 656.156 456.639 656.038 454.846 655.91 453.2 655.772 451.7 655.634 450.2 655.516 448.933 655.417 447.901 655.319 446.868 655.25 446.235 655.21 446.001 654.816 445.611 654.501 445.183 654.265 444.715 654.028 444.248 653.91 443.702 653.91 443.079 653.91 442.338 654.107 441.393 654.501 440.244 654.895 439.094 655.427 438.149 656.097 437.409ZM812.325 437C812.444 438.013 812.66 438.841 812.975 439.484 813.291 440.127 813.685 440.682 814.158 441.15 814.631 441.617 815.192 442.007 815.842 442.319 816.493 442.631 817.212 442.942 818 443.254L815.872 447.696C815.99 449.488 816.108 451.446 816.227 453.57 816.345 455.694 816.453 457.866 816.552 460.087 816.65 462.308 816.729 464.519 816.788 466.721 816.847 468.923 816.877 470.959 816.877 472.829 816.877 473.92 816.828 474.884 816.729 475.722 816.631 476.56 816.453 477.378 816.197 478.177 815.941 478.976 815.576 479.804 815.104 480.661 814.631 481.518 814.04 482.473 813.33 483.525L813.094 483.525 812.798 483.291C812.995 482.278 813.123 480.68 813.182 478.498 813.241 476.316 813.271 473.706 813.271 470.666 813.271 468.796 813.222 466.721 813.123 464.442 813.025 462.162 812.907 459.892 812.769 457.632 812.631 455.372 812.473 453.21 812.296 451.145 812.118 449.079 811.951 447.306 811.793 445.826 811.399 445.436 811.025 444.968 810.67 444.423 810.315 443.877 810.138 443.293 810.138 442.669 810.138 441.929 810.335 440.984 810.729 439.835 811.123 438.685 811.655 437.74 812.325 437ZM670.056 437C670.174 438.013 670.39 438.841 670.706 439.484 671.021 440.127 671.415 440.682 671.888 441.15 672.361 441.617 672.922 442.007 673.573 442.319 674.223 442.631 674.942 442.942 675.73 443.254L673.602 447.696C673.72 449.488 673.839 451.446 673.957 453.57 674.075 455.694 674.183 457.866 674.282 460.087 674.381 462.308 674.459 464.519 674.518 466.721 674.578 468.923 674.607 470.959 674.607 472.829 674.607 473.92 674.558 474.884 674.459 475.722 674.361 476.56 674.183 477.378 673.927 478.177 673.671 478.976 673.307 479.804 672.834 480.661 672.361 481.518 671.77 482.473 671.06 483.525L670.824 483.525 670.528 483.291C670.725 482.278 670.853 480.68 670.913 478.498 670.972 476.316 671.001 473.706 671.001 470.666 671.001 468.796 670.952 466.721 670.853 464.442 670.755 462.162 670.637 459.892 670.499 457.632 670.361 455.372 670.203 453.21 670.026 451.145 669.849 449.079 669.681 447.306 669.523 445.826 669.129 445.436 668.755 444.968 668.4 444.423 668.046 443.877 667.868 443.293 667.868 442.669 667.868 441.929 668.065 440.984 668.459 439.835 668.854 438.685 669.386 437.74 670.056 437Z" fill="#413332" fill-rule="evenodd"/></g></svg>